{
.appVersion = "3343";
.formatVersion = 3;
axes = (
{
name = Distortion;
tag = DIST;
}
);
date = "2023-05-19 16:27:00 +0000";
familyName = "Wounded Type";
fontMaster = (
{
axesValues = (
0
);
customParameters = (
{
name = typoAscender;
value = 800;
},
{
name = typoDescender;
value = -200;
},
{
name = typoLineGap;
value = 200;
},
{
name = winAscent;
value = 1000;
},
{
name = winDescent;
value = 200;
},
{
name = hheaAscender;
value = 1000;
},
{
name = hheaDescender;
value = -200;
},
{
name = strikeoutPosition;
value = 250;
},
{
name = strikeoutSize;
value = 50;
}
);
id = m01;
metricValues = (
{
pos = 800;
},
{
pos = 700;
},
{
pos = 500;
},
{
},
{
pos = -200;
},
{
}
);
name = Regular;
},
{
axesValues = (
100
);
customParameters = (
{
name = typoAscender;
value = 800;
},
{
name = typoDescender;
value = -200;
},
{
name = typoLineGap;
value = 200;
},
{
name = winAscent;
value = 1000;
},
{
name = winDescent;
value = 200;
},
{
name = hheaAscender;
value = 1000;
},
{
name = hheaDescender;
value = -200;
},
{
name = strikeoutPosition;
value = 250;
},
{
name = strikeoutSize;
value = 50;
}
);
id = "B3CF2B1D-9DC0-4956-9CAC-A50305770E90";
metricValues = (
{
pos = 800;
},
{
pos = 700;
},
{
pos = 500;
},
{
},
{
pos = -200;
},
{
}
);
name = Wounded;
}
);
glyphs = (
{
glyphname = A;
lastChange = "2025-10-03 14:59:39 +0000";
layers = (
{
layerId = m01;
shapes = (
{
closed = 1;
nodes = (
(346,45,ls),
(338,80,o),
(330,115,o),
(322,151,q),
(321,153,l),
(320,159,o),
(319,164,qs),
(318,167,ls),
(317,172,o),
(316,176,qs),
(314,186,o),
(314,188,q),
(312,196,o),
(310,203,q),
(310,205,o),
(309,206,q),
(307,217,o),
(304,228,o),
(302,239,qs),
(289,296,ls),
(287,303,o),
(286,309,o),
(284,316,q),
(284,318,l),
(282,326,o),
(281,335,o),
(279,343,qs),
(270,380,ls),
(265,401,o),
(261,422,o),
(256,443,qs),
(251,463,o),
(240,510,o),
(233,540,qs),
(231,550,o),
(229,559,qs),
(225,576,o),
(222,592,o),
(218,609,qs),
(211,641,l),
(196,700,l),
(129,700,l),
(12,1,l),
(98,-1,l),
(122,189,l),
(138,189,o),
(154,189,o),
(171,189,qs),
(190,189,o),
(208,189,qs),
(217,189,o),
(225,189,o),
(234,189,q),
(266,0,l),
(356,0,l)
);
},
{
closed = 1;
nodes = (
(160,508,l),
(179,508,l),
(215,295,l),
(137,295,l)
);
}
);
width = 368;
},
{
layerId = "B3CF2B1D-9DC0-4956-9CAC-A50305770E90";
shapes = (
{
closed = 1;
nodes = (
(442,46,ls),
(442,59,o),
(408,140,o),
(396,155,qs),
(394,157,ls),
(390,163,o),
(389,168,qs),
(389,171,l),
(391,176,o),
(388,180,q),
(386,186,o),
(371,193,qs),
(355,201,o),
(354,208,qs),
(354,210,o),
(354,211,qs),
(354,219,o),
(353,242,o),
(349,245,q),
(303,304,l),
(302,311,o),
(305,318,o),
(309,324,qs),
(310,326,ls),
(312,329,o),
(312,340,o),
(311,352,qs),
(307,390,ls),
(303,412,o),
(294,436,o),
(281,454,q),
(264,473,o),
(252,513,o),
(248,554,qs),
(248,559,o),
(246,573,q),
(246,592,o),
(235,614,o),
(219,624,q),
(186,657,l),
(152,700,l),
(119,700,l),
(12,49,l),
(108,47,l),
(122,189,l),
(124,194,o),
(178,223,o),
(191,228,q),
(225,247,o),
(248,284,q),
(252,288,o),
(261,292,o),
(264,289,q),
(276,41,l),
(441,13,l)
);
},
{
closed = 1;
nodes = (
(159,508,l),
(170,508,l),
(236,362,l),
(136,322,l)
);
}
);
width = 454;
}
);
note = A;
unicode = (65,97);
},
{
glyphname = B;
lastChange = "2025-10-03 14:59:39 +0000";
layers = (
{
layerId = m01;
shapes = (
{
closed = 1;
nodes = (
(186,88,l),
(113,88,l),
(113,287,l),
(209,287,o),
(305,287,qs),
(319,287,o),
(362,267,o),
(395,226,o),
(395,195,qs),
(395,151,o),
(344,88,o),
(277,88,qs)
);
},
{
closed = 1;
nodes = (
(113,380,l),
(113,609,l),
(170,609,o),
(227,609,qs),
(240,609,o),
(252,604,qs),
(269,599,o),
(285,585,qs),
(307,565,o),
(318,524,qs),
(319,520,ls),
(321,514,o),
(322,481,o),
(319,469,qs),
(318,465,o),
(317,460,qs),
(315,453,o),
(307,435,o),
(302,427,qs),
(291,409,o),
(260,384,o),
(235,380,q)
);
},
{
closed = 1;
nodes = (
(328,0,o),
(400,24,o),
(431,54,qs),
(460,82,o),
(488,136,o),
(496,174,qs),
(499,188,o),
(497,232,o),
(492,254,qs),
(483,288,o),
(473,304,qs),
(471,307,o),
(470,309,o),
(468,312,qs),
(455,331,o),
(435,353,o),
(411,373,qs),
(404,379,o),
(397,382,q),
(402,391,ls),
(420,422,o),
(420,429,q),
(431,459,o),
(431,498,qs),
(429,526,o),
(426,539,qs),
(425,543,o),
(424,546,qs),
(423,548,o),
(423,551,o),
(422,553,q),
(420,561,o),
(417,569,qs),
(411,583,ls),
(402,599,o),
(382,629,o),
(377,634,qs),
(375,636,o),
(372,639,o),
(370,641,qs),
(365,646,ls),
(363,648,o),
(361,649,o),
(359,651,q),
(358,653,o),
(354,656,o),
(352,657,qs),
(348,659,o),
(344,663,q),
(332,670,o),
(320,676,o),
(308,683,qs),
(299,687,o),
(275,694,o),
(261,697,qs),
(258,698,o),
(221,700,o),
(213,700,qs),
(200,700,o),
(186,700,qs),
(169,700,o),
(152,700,o),
(134,700,qs),
(130,700,o),
(126,700,qs),
(119,700,o),
(112,700,qs),
(20,700,l),
(19,515,o),
(20,350,qs),
(20,335,o),
(20,321,o),
(20,306,qs),
(20,261,o),
(20,217,o),
(20,171,qs),
(20,157,o),
(20,144,o),
(20,130,q),
(20,131,l),
(20,0,l),
(271,0,l),
(303,0,ls)
);
}
);
width = 518;
},
{
layerId = "B3CF2B1D-9DC0-4956-9CAC-A50305770E90";
shapes = (
{
closed = 1;
nodes = (
(503,97,l),
(226,96,l),
(226,276,l),
(242,278,o),
(249,278,qs),
(267,278,o),
(350,252,o),
(440,211,o),
(469,193,qs),
(484,183,o),
(501,166,o),
(503,154,q)
);
},
{
closed = 1;
nodes = (
(86,367,l),
(86,611,l),
(135,620,o),
(171,605,qs),
(176,603,o),
(183,594,qs),
(189,586,o),
(207,570,qs),
(251,534,o),
(267,505,qs),
(269,502,ls),
(272,497,o),
(276,482,o),
(277,472,qs),
(280,453,o),
(283,433,qs),
(285,413,o),
(290,399,o),
(296,392,qs),
(301,386,o),
(304,372,o),
(304,368,q)
);
},
{
closed = 1;
nodes = (
(588,124,o),
(579,174,o),
(568,199,qs),
(558,219,o),
(530,251,o),
(510,262,qs),
(504,265,o),
(492,277,o),
(486,282,qs),
(478,290,o),
(470,297,qs),
(460,306,o),
(448,310,o),
(440,310,qs),
(432,310,o),
(415,316,o),
(400,325,qs),
(383,335,o),
(377,367,q),
(378,371,ls),
(381,380,o),
(381,386,qs),
(381,390,o),
(370,408,qs),
(369,410,o),
(356,434,q),
(354,440,o),
(363,449,qs),
(365,451,o),
(368,455,o),
(368,457,qs),
(368,459,o),
(364,466,qs),
(358,478,ls),
(347,503,o),
(327,540,o),
(322,539,q),
(320,538,o),
(317,540,o),
(315,541,qs),
(309,544,ls),
(307,545,o),
(302,546,o),
(300,547,qs),
(297,548,o),
(292,549,o),
(291,552,q),
(290,560,o),
(288,567,qs),
(286,579,o),
(279,611,o),
(273,623,qs),
(269,631,o),
(249,659,o),
(246,661,qs),
(243,664,o),
(221,671,o),
(215,673,q),
(208,673,o),
(194,671,qs),
(179,669,o),
(162,670,o),
(156,676,qs),
(150,682,o),
(148,686,q),
(140,696,o),
(134,700,q),
(20,700,l),
(19,515,o),
(20,350,qs),
(20,332,o),
(51,313,o),
(77,306,qs),
(125,294,o),
(173,219,o),
(162,171,qs),
(160,160,o),
(136,131,o),
(127,130,q),
(92,131,l),
(92,0,l),
(587,0,l),
(587,111,ls)
);
}
);
width = 607;
}
);
note = B;
unicode = (66,98);
},
{
glyphname = C;
lastChange = "2025-10-03 14:59:39 +0000";
layers = (
{
layerId = m01;
shapes = (
{
closed = 1;
nodes = (
(409,409,l),
(409,500,l),
(213,500,ls),
(200,500,o),
(187,500,q),
(187,500,o),
(186,500,qs),
(184,500,o),
(181,500,qs),
(171,500,o),
(160,500,qs),
(158,500,ls),
(150,500,o),
(143,500,o),
(135,500,qs),
(102,500,o),
(70,499,o),
(36,499,qs),
(25,499,l),
(25,481,o),
(25,463,qs),
(25,440,o),
(25,417,qs),
(25,416,o),
(25,415,qs),
(25,413,o),
(25,412,o),
(25,410,qs),
(25,327,o),
(25,243,o),
(25,157,qs),
(25,147,ls),
(25,98,o),
(25,50,o),
(25,0,q),
(25,0,o),
(25,0,o),
(25,0,q),
(25,0,o),
(25,0,o),
(25,0,q),
(29,0,o),
(33,0,o),
(37,0,qs),
(95,0,o),
(152,0,qs),
(157,0,o),
(161,0,o),
(166,0,qs),
(168,0,o),
(171,0,o),
(173,0,qs),
(181,0,o),
(188,0,qs),
(198,0,o),
(207,0,qs),
(211,0,o),
(216,0,o),
(220,0,qs),
(222,0,o),
(225,0,o),
(227,0,qs),
(228,0,o),
(228,0,o),
(229,0,qs),
(418,0,l),
(418,90,l),
(301,90,ls),
(293,90,o),
(284,90,qs),
(258,90,o),
(233,90,o),
(206,90,q),
(206,170,o),
(206,250,o),
(206,329,o),
(206,409,q),
(233,409,o),
(259,409,o),
(286,409,o),
(312,409,qs)
);
}
);
width = 438;
},
{
layerId = "B3CF2B1D-9DC0-4956-9CAC-A50305770E90";
shapes = (
{
closed = 1;
nodes = (
(562,578,l),
(562,701,l),
(283,701,l),
(260,675,o),
(247,675,q),
(238,677,o),
(235,672,q),
(232,671,o),
(228,672,qs),
(211,674,o),
(199,662,q),
(196,657,ls),
(190,645,o),
(177,630,o),
(164,624,qs),
(159,622,o),
(153,610,o),
(151,604,qs),
(150,600,ls),
(149,598,o),
(151,593,q),
(155,589,o),
(153,584,q),
(145,577,o),
(126,581,qs),
(115,583,o),
(103,581,o),
(99,574,qs),
(49,488,o),
(9,307,o),
(30,220,q),
(34,209,ls),
(47,175,o),
(71,129,o),
(89,114,q),
(96,105,o),
(115,106,o),
(131,111,qs),
(137,113,o),
(148,116,o),
(153,116,q),
(158,118,o),
(164,116,o),
(167,114,q),
(173,105,o),
(188,111,q),
(198,112,o),
(205,102,o),
(208,90,qs),
(209,84,o),
(213,73,o),
(217,72,qs),
(226,68,o),
(242,64,qs),
(264,58,o),
(275,51,q),
(279,44,o),
(286,36,o),
(293,36,q),
(300,39,o),
(303,30,o),
(303,18,qs),
(303,13,o),
(304,4,o),
(305,0,q),
(562,0,l),
(562,111,l),
(456,111,l),
(453,112,o),
(443,100,qs),
(427,82,o),
(395,59,o),
(369,59,q),
(329,67,o),
(277,139,o),
(254,231,o),
(254,271,qs),
(254,359,o),
(299,546,o),
(397,635,o),
(472,578,q)
);
}
);
width = 582;
}
);
note = C;
unicode = (67,99);
},
{
glyphname = D;
lastChange = "2025-10-03 14:59:39 +0000";
layers = (
{
layerId = m01;
shapes = (
{
closed = 1;
nodes = (
(98,117,l),
(98,575,l),
(103,575,ls),
(116,575,o),
(123,572,qs),
(126,571,o),
(128,570,o),
(131,569,q),
(143,561,ls),
(148,557,o),
(155,548,o),
(157,544,q),
(161,540,o),
(161,530,q),
(162,527,o),
(162,524,qs),
(162,521,o),
(162,517,qs),
(162,511,o),
(162,506,o),
(162,500,qs),
(162,478,o),
(162,456,qs),
(162,436,o),
(161,416,o),
(161,395,qs),
(160,340,o),
(160,239,o),
(161,178,q),
(158,148,o),
(143,128,o),
(134,123,q),
(133,123,l),
(126,121,ls),
(117,118,o),
(111,118,qs)
);
},
{
closed = 1;
nodes = (
(20,0,l),
(48,0,l),
(71,0,ls),
(95,0,o),
(101,1,qs),
(120,4,o),
(148,16,qs),
(160,20,o),
(175,31,q),
(178,32,o),
(185,37,o),
(189,39,qs),
(193,42,o),
(196,45,qs),
(199,48,o),
(209,58,o),
(214,64,qs),
(226,77,o),
(233,91,q),
(233,93,o),
(234,94,q),
(236,102,ls),
(238,108,o),
(242,122,o),
(242,129,qs),
(242,142,l),
(242,162,ls),
(242,174,o),
(242,185,o),
(241,184,o),
(241,183,q),
(241,183,o),
(242,184,o),
(242,185,qs),
(242,207,l),
(242,227,ls),
(242,238,o),
(242,249,qs),
(242,251,o),
(242,253,o),
(242,255,qs),
(242,256,o),
(242,256,o),
(242,257,qs),
(242,261,ls),
(242,265,o),
(242,268,q),
(242,263,o),
(242,258,qs),
(242,255,o),
(242,252,o),
(242,249,qs),
(242,258,o),
(242,267,o),
(242,276,qs),
(242,299,ls),
(242,306,o),
(242,312,qs),
(242,317,o),
(242,322,qs),
(242,334,l),
(242,349,l),
(242,362,ls),
(242,373,o),
(242,384,qs),
(242,393,o),
(242,402,qs),
(242,414,o),
(242,425,qs),
(242,427,o),
(242,429,qs),
(242,432,o),
(242,434,qs),
(242,444,ls),
(242,473,o),
(242,502,qs),
(242,504,ls),
(242,511,o),
(242,518,o),
(242,525,qs),
(242,537,o),
(242,548,qs),
(243,571,o),
(237,604,o),
(212,639,o),
(187,661,qs),
(181,667,o),
(169,674,qs),
(150,685,o),
(103,699,o),
(93,699,qs),
(57,700,o),
(21,700,q),
(22,684,o),
(22,653,o),
(21,625,qs)
);
}
);
width = 262;
},
{
layerId = "B3CF2B1D-9DC0-4956-9CAC-A50305770E90";
shapes = (
{
closed = 1;
nodes = (
(157,93,l),
(430,585,l),
(490,585,l),
(514,587,o),
(545,578,qs),
(561,574,o),
(578,572,o),
(589,575,q),
(592,579,ls),
(594,583,o),
(599,587,o),
(606,585,qs),
(621,582,o),
(640,591,qs),
(654,597,o),
(662,597,q),
(686,604,o),
(705,585,q),
(712,575,o),
(729,566,o),
(743,562,q),
(739,549,o),
(701,506,q),
(682,493,o),
(667,424,o),
(670,384,q),
(660,324,o),
(601,232,o),
(529,154,qs),
(507,129,o),
(469,101,o),
(449,100,qs),
(444,100,l),
(424,95,ls),
(406,90,o),
(394,90,qs)
);
},
{
closed = 1;
nodes = (
(0,0,l),
(307,0,l),
(336,4,ls),
(348,6,o),
(357,8,q),
(371,17,o),
(385,33,qs),
(402,50,o),
(402,50,q),
(412,60,o),
(443,59,o),
(466,52,qs),
(492,46,o),
(502,46,qs),
(509,46,o),
(527,53,o),
(539,58,q),
(548,58,o),
(557,61,q),
(560,63,o),
(562,64,q),
(566,69,ls),
(569,73,o),
(578,85,o),
(585,91,q),
(596,105,l),
(612,127,l),
(620,141,o),
(630,161,o),
(635,174,o),
(636,178,qs),
(637,180,o),
(638,183,o),
(639,185,q),
(639,207,l),
(642,227,ls),
(644,243,o),
(647,249,q),
(651,252,o),
(661,254,o),
(667,255,qs),
(671,255,o),
(680,256,o),
(685,257,q),
(690,261,ls),
(699,268,o),
(705,268,q),
(712,266,o),
(720,258,q),
(723,256,o),
(730,250,o),
(734,249,q),
(744,249,o),
(761,266,o),
(761,276,qs),
(761,299,ls),
(761,306,o),
(759,312,qs),
(757,319,o),
(761,322,q),
(763,334,l),
(765,349,l),
(773,362,ls),
(778,372,o),
(788,384,q),
(792,394,o),
(792,402,qs),
(792,416,o),
(778,425,q),
(778,427,o),
(776,429,qs),
(774,431,o),
(774,434,qs),
(774,444,l),
(793,473,o),
(811,502,q),
(813,504,ls),
(817,507,o),
(824,518,o),
(824,525,qs),
(824,534,o),
(815,548,qs),
(799,569,o),
(700,657,o),
(579,715,o),
(533,693,q),
(530,691,o),
(526,688,qs),
(513,679,o),
(493,668,o),
(479,666,qs),
(453,662,o),
(417,674,q),
(387,689,o),
(354,658,o),
(340,624,q)
);
}
);
width = 844;
}
);
note = D;
unicode = (68,100);
},
{
glyphname = E;
lastChange = "2025-10-03 14:59:39 +0000";
layers = (
{
layerId = m01;
shapes = (
{
closed = 1;
nodes = (
(215,593,l),
(215,700,l),
(21,700,l),
(20,0,l),
(220,0,l),
(220,108,l),
(217,108,ls),
(216,108,o),
(215,108,o),
(214,108,qs),
(225,108,l),
(210,108,o),
(195,108,qs),
(191,108,o),
(187,108,qs),
(161,108,o),
(135,108,qs),
(121,108,o),
(106,108,qs),
(103,108,o),
(100,108,qs),
(92,108,o),
(83,108,q),
(87,108,o),
(90,108,qs),
(106,108,o),
(121,108,qs),
(80,108,l),
(80,305,l),
(80,305,o),
(79,305,qs),
(84,305,o),
(88,305,qs),
(96,305,o),
(103,305,o),
(111,305,qs),
(133,305,o),
(155,305,o),
(177,305,qs),
(189,305,l),
(217,305,l),
(198,305,o),
(179,305,q),
(182,305,o),
(185,305,qs),
(191,305,l),
(191,417,l),
(186,417,ls),
(183,417,o),
(179,417,qs),
(175,417,o),
(171,417,qs),
(169,417,l),
(167,417,l),
(201,417,l),
(198,417,o),
(195,417,qs),
(192,417,ls),
(166,417,o),
(140,417,qs),
(126,417,o),
(111,417,qs),
(110,417,o),
(108,417,o),
(107,417,qs),
(106,417,ls),
(101,417,o),
(95,417,qs),
(91,417,ls),
(89,417,o),
(87,417,qs),
(84,417,o),
(80,417,q),
(80,505,o),
(80,593,q),
(85,593,l),
(87,593,l),
(86,593,o),
(86,593,o),
(85,593,qs),
(84,593,ls),
(89,593,o),
(93,593,qs),
(100,593,o),
(106,593,o),
(113,593,qs),
(116,593,ls),
(138,593,o),
(160,593,o),
(183,593,qs),
(192,593,ls),
(200,593,o),
(207,593,qs),
(215,593,o),
(223,593,o),
(231,593,q),
(225,593,o),
(218,593,o),
(212,593,qs),
(211,593,l)
);
}
);
width = 252;
},
{
layerId = "B3CF2B1D-9DC0-4956-9CAC-A50305770E90";
shapes = (
{
closed = 1;
nodes = (
(259,562,l),
(259,700,l),
(21,700,l),
(20,0,l),
(252,0,l),
(252,114,l),
(249,114,l),
(248,113,o),
(246,112,o),
(246,111,q),
(225,111,l),
(215,114,o),
(195,118,q),
(189,121,o),
(187,123,qs),
(183,127,o),
(148,131,qs),
(137,133,o),
(126,134,q),
(123,135,o),
(120,132,q),
(110,128,o),
(104,132,qs),
(100,135,o),
(91,149,qs),
(88,155,o),
(91,164,q),
(101,182,l),
(101,191,ls),
(102,197,o),
(100,205,q),
(99,218,o),
(109,228,q),
(117,243,o),
(122,247,o),
(131,245,qs),
(139,244,o),
(166,245,o),
(180,245,qs),
(189,245,l),
(217,245,ls),
(223,245,o),
(230,242,q),
(233,242,o),
(239,240,q),
(245,240,l),
(245,437,l),
(240,437,l),
(235,434,o),
(233,435,q),
(228,435,o),
(225,436,qs),
(223,437,l),
(221,437,l),
(201,441,l),
(199,441,o),
(195,443,qs),
(192,444,l),
(189,448,o),
(153,452,qs),
(142,454,o),
(131,455,q),
(130,456,o),
(128,455,o),
(127,455,qs),
(126,455,l),
(121,451,o),
(115,461,q),
(111,465,l),
(102,469,o),
(97,479,qs),
(93,486,o),
(96,493,qs),
(103,507,o),
(105,513,qs),
(106,518,l),
(107,522,ls),
(107,524,o),
(106,529,o),
(105,531,q),
(104,536,l),
(104,550,o),
(113,559,qs),
(119,566,o),
(125,568,o),
(133,566,q),
(136,566,ls),
(147,565,o),
(174,566,o),
(185,566,qs),
(192,566,ls),
(202,566,o),
(207,567,q),
(214,567,o),
(226,568,o),
(231,567,qs),
(236,567,o),
(244,565,o),
(249,564,qs),
(255,562,l)
);
}
);
width = 279;
}
);
note = E;
unicode = (69,101);
},
{
glyphname = F;
lastChange = "2025-10-03 14:59:39 +0000";
layers = (
{
layerId = m01;
shapes = (
{
closed = 1;
nodes = (
(128,415,ls),
(120,415,o),
(111,415,qs),
(107,415,l),
(98,415,ls),
(89,415,o),
(79,415,q),
(79,584,l),
(81,584,o),
(83,584,qs),
(84,584,o),
(85,584,o),
(86,584,qs),
(87,584,ls),
(90,584,o),
(93,584,qs),
(94,584,o),
(95,584,o),
(96,584,qs),
(103,584,o),
(110,584,qs),
(120,584,o),
(129,584,qs),
(131,584,ls),
(135,584,o),
(138,584,qs),
(140,584,ls),
(141,584,o),
(142,584,q),
(142,584,o),
(141,584,qs),
(145,584,o),
(149,584,qs),
(151,584,o),
(153,584,qs),
(160,584,o),
(166,584,qs),
(168,584,o),
(170,584,qs),
(189,584,ls),
(193,584,o),
(196,584,qs),
(198,584,o),
(200,584,qs),
(203,584,o),
(205,584,qs),
(206,584,o),
(206,584,o),
(207,584,qs),
(209,584,o),
(210,584,o),
(212,584,qs),
(213,584,o),
(213,584,o),
(214,584,qs),
(225,584,l),
(252,584,l),
(253,584,ls),
(258,584,o),
(263,584,qs),
(265,584,l),
(265,584,o),
(264,584,qs),
(267,584,o),
(271,584,o),
(274,584,q),
(273,584,o),
(271,584,o),
(270,584,qs),
(281,584,o),
(292,584,qs),
(297,584,o),
(301,584,qs),
(309,584,o),
(316,584,qs),
(320,584,o),
(323,584,q),
(323,700,l),
(20,700,l),
(20,0,l),
(79,0,l),
(79,281,l),
(279,281,l),
(279,415,l),
(274,415,ls),
(268,415,o),
(261,415,qs),
(259,415,ls),
(247,415,o),
(235,415,qs),
(234,415,o),
(234,415,o),
(233,415,qs),
(231,415,ls),
(224,415,o),
(216,415,qs),
(208,415,l),
(207,415,l),
(205,415,ls),
(202,415,o),
(198,415,qs),
(196,415,l),
(192,415,l),
(187,415,ls),
(169,415,o),
(151,415,o),
(132,415,qs)
);
}
);
width = 343;
},
{
layerId = "B3CF2B1D-9DC0-4956-9CAC-A50305770E90";
shapes = (
{
closed = 1;
nodes = (
(128,489,ls),
(121,488,o),
(111,493,q),
(107,494,l),
(98,495,ls),
(91,495,o),
(79,497,q),
(79,608,l),
(81,610,o),
(83,610,q),
(84,609,o),
(86,608,o),
(86,607,q),
(87,606,ls),
(89,605,o),
(93,609,q),
(93,610,o),
(95,611,o),
(96,611,qs),
(104,613,o),
(110,613,qs),
(118,614,o),
(129,607,qs),
(131,606,ls),
(139,603,o),
(138,596,q),
(140,593,l),
(144,590,o),
(142,579,q),
(139,573,o),
(141,565,qs),
(142,562,o),
(149,557,qs),
(150,556,o),
(153,556,q),
(160,549,o),
(166,553,q),
(166,554,o),
(170,552,qs),
(189,541,l),
(191,539,o),
(196,529,q),
(199,528,o),
(200,525,q),
(204,518,o),
(205,510,q),
(206,509,o),
(207,507,o),
(207,505,qs),
(207,503,o),
(209,500,o),
(212,500,qs),
(213,500,o),
(214,499,o),
(214,498,q),
(225,486,l),
(252,486,l),
(253,495,ls),
(253,503,o),
(263,509,q),
(265,511,ls),
(279,521,o),
(284,526,qs),
(285,527,o),
(291,529,o),
(294,528,q),
(287,527,o),
(286,528,o),
(290,529,q),
(302,535,o),
(312,528,qs),
(317,525,o),
(321,529,qs),
(328,538,o),
(336,545,qs),
(340,548,o),
(343,545,q),
(343,700,l),
(20,700,l),
(20,0,l),
(79,0,l),
(79,281,l),
(279,281,l),
(279,430,l),
(274,430,ls),
(270,430,o),
(261,427,qs),
(259,426,l),
(242,424,o),
(235,432,qs),
(234,433,o),
(233,436,o),
(233,438,q),
(231,446,ls),
(228,455,o),
(216,467,qs),
(208,476,l),
(207,478,l),
(205,481,ls),
(201,487,o),
(198,488,qs),
(196,489,l),
(192,489,l),
(187,489,l),
(182,491,o),
(149,492,o),
(132,489,q)
);
}
);
width = 363;
}
);
note = F;
unicode = (70,102);
},
{
glyphname = G;
lastChange = "2025-10-03 14:59:39 +0000";
layers = (
{
layerId = m01;
shapes = (
{
closed = 1;
nodes = (
(371,537,o),
(347,587,q),
(344,596,o),
(340,604,qs),
(336,613,o),
(312,645,o),
(300,656,qs),
(288,667,ls),
(286,669,o),
(283,670,q),
(259,687,o),
(240,693,qs),
(229,696,o),
(211,700,o),
(204,701,qs),
(192,701,o),
(185,700,qs),
(176,699,ls),
(164,696,o),
(148,690,o),
(133,682,q),
(129,679,o),
(125,677,o),
(121,674,qs),
(116,671,o),
(111,667,qs),
(83,646,o),
(57,604,qs),
(40,575,o),
(20,515,o),
(20,489,qs),
(20,466,o),
(20,443,o),
(20,420,qs),
(20,413,ls),
(20,410,o),
(20,408,o),
(20,405,qs),
(20,402,o),
(20,398,q),
(20,398,o),
(20,397,o),
(20,397,q),
(20,394,o),
(20,390,o),
(20,387,qs),
(20,386,o),
(20,386,o),
(20,385,qs),
(20,381,o),
(20,377,o),
(20,373,qs),
(20,355,l),
(20,283,l),
(20,178,ls),
(20,120,o),
(72,38,o),
(147,-2,o),
(181,0,qs),
(228,0,o),
(264,17,qs),
(291,31,o),
(304,52,q),
(305,43,o),
(306,35,o),
(307,26,qs),
(308,19,o),
(308,11,q),
(329,11,o),
(349,11,qs),
(360,11,o),
(371,11,q),
(371,70,o),
(371,129,o),
(371,190,qs),
(371,392,l),
(172,392,l),
(172,367,o),
(172,342,o),
(172,316,q),
(235,316,o),
(297,316,q),
(297,310,ls),
(297,289,o),
(297,268,o),
(297,247,qs),
(297,242,ls),
(297,231,o),
(298,205,o),
(297,196,qs),
(295,173,o),
(271,117,o),
(225,77,o),
(191,79,qs),
(171,80,o),
(152,94,qs),
(127,112,o),
(101,177,o),
(99,203,qs),
(99,228,o),
(99,252,qs),
(99,257,ls),
(99,274,o),
(99,291,qs),
(99,313,ls),
(99,334,o),
(99,355,qs),
(99,362,ls),
(99,377,o),
(99,391,qs),
(99,401,o),
(99,410,qs),
(99,419,o),
(99,428,qs),
(99,440,o),
(99,452,o),
(99,464,o),
(99,476,q),
(101,487,ls),
(111,532,o),
(148,595,o),
(193,603,q),
(208,603,o),
(234,595,o),
(244,587,qs),
(254,580,o),
(269,560,o),
(275,548,qs),
(290,522,o),
(295,492,qs),
(298,469,o),
(297,451,q),
(334,451,o),
(371,451,q),
(371,457,o),
(371,463,qs),
(371,488,o),
(371,513,qs)
);
}
);
width = 391;
},
{
layerId = "B3CF2B1D-9DC0-4956-9CAC-A50305770E90";
shapes = (
{
closed = 1;
nodes = (
(589,558,o),
(587,567,qs),
(584,576,o),
(581,594,qs),
(580,603,o),
(528,631,o),
(473,659,qs),
(448,671,ls),
(434,679,o),
(425,681,q),
(419,681,o),
(406,686,qs),
(394,691,o),
(381,692,o),
(373,689,qs),
(361,685,o),
(346,686,qs),
(337,687,ls),
(324,688,o),
(309,692,o),
(295,700,q),
(293,699,o),
(288,699,o),
(286,699,q),
(281,701,o),
(278,699,q),
(275,698,o),
(261,688,qs),
(254,682,o),
(238,672,o),
(235,672,qs),
(221,673,o),
(212,672,o),
(202,668,qs),
(191,663,ls),
(185,661,o),
(183,658,o),
(184,655,q),
(184,651,o),
(180,648,qs),
(177,646,o),
(173,645,o),
(172,645,q),
(170,644,o),
(163,641,o),
(157,637,q),
(154,636,o),
(146,635,o),
(143,635,qs),
(137,636,o),
(132,630,o),
(130,623,q),
(20,475,l),
(23,149,l),
(177,27,l),
(195,18,o),
(216,7,o),
(225,4,o),
(227,3,q),
(244,1,o),
(276,1,q),
(294,3,o),
(312,1,qs),
(331,0,o),
(365,9,o),
(392,18,qs),
(415,27,o),
(438,33,qs),
(455,38,o),
(487,60,qs),
(521,83,o),
(534,86,qs),
(552,90,o),
(568,112,o),
(570,131,q),
(570,313,l),
(275,313,l),
(286,298,o),
(322,266,o),
(337,261,qs),
(354,255,o),
(356,235,qs),
(356,227,ls),
(356,204,o),
(358,168,o),
(364,138,q),
(360,136,ls),
(352,133,o),
(344,131,o),
(336,128,qs),
(324,123,o),
(302,120,o),
(279,123,o),
(266,128,qs),
(254,133,o),
(242,138,qs),
(222,145,o),
(183,162,o),
(163,173,q),
(127,197,o),
(116,222,qs),
(114,227,ls),
(104,249,o),
(104,261,qs),
(104,283,ls),
(104,311,o),
(107,325,q),
(106,332,ls),
(103,360,o),
(106,361,qs),
(116,366,o),
(123,380,qs),
(129,391,o),
(138,398,q),
(139,416,o),
(171,459,o),
(212,492,o),
(224,496,qs),
(246,503,ls),
(291,519,o),
(355,558,o),
(404,598,q),
(409,601,o),
(427,572,o),
(447,533,qs),
(465,497,o),
(488,458,o),
(495,459,qs),
(524,462,o),
(551,467,qs),
(564,469,o),
(577,470,qs),
(592,470,o),
(589,485,qs),
(588,491,o),
(590,513,qs),
(594,538,o),
(591,549,qs)
);
}
);
width = 612;
}
);
note = G;
unicode = (71,103);
},
{
glyphname = H;
lastChange = "2025-10-03 14:59:39 +0000";
layers = (
{
layerId = m01;
shapes = (
{
closed = 1;
nodes = (
(92,521,o),
(92,526,o),
(92,532,qs),
(92,563,o),
(92,593,qs),
(92,604,o),
(92,615,o),
(92,626,qs),
(92,634,o),
(92,642,qs),
(92,652,ls),
(92,657,o),
(92,661,qs),
(92,700,l),
(20,700,l),
(20,1,l),
(92,1,l),
(92,297,l),
(166,297,o),
(241,297,o),
(317,297,qs),
(339,297,o),
(360,297,q),
(360,252,o),
(360,207,o),
(360,161,qs),
(360,0,l),
(432,0,l),
(432,700,l),
(360,700,l),
(360,575,ls),
(360,570,o),
(360,565,o),
(360,560,qs),
(360,553,o),
(360,546,qs),
(360,534,ls),
(360,521,o),
(360,508,qs),
(360,492,o),
(360,476,o),
(360,460,qs),
(360,442,o),
(360,423,q),
(272,423,o),
(183,423,o),
(92,423,q),
(92,469,o),
(92,515,qs)
);
}
);
width = 452;
},
{
layerId = "B3CF2B1D-9DC0-4956-9CAC-A50305770E90";
shapes = (
{
closed = 1;
nodes = (
(127,518,o),
(124,528,o),
(124,532,q),
(114,564,o),
(118,593,qs),
(119,607,o),
(113,622,o),
(105,626,qs),
(90,632,o),
(79,642,q),
(77,652,l),
(77,655,o),
(75,661,q),
(51,700,l),
(20,700,l),
(20,1,l),
(68,1,l),
(173,308,l),
(205,320,o),
(295,327,o),
(305,312,qs),
(310,304,o),
(313,281,qs),
(314,258,o),
(336,194,o),
(357,161,q),
(313,0,l),
(432,0,l),
(432,700,l),
(340,700,l),
(329,575,ls),
(328,568,o),
(324,562,o),
(322,560,q),
(317,557,o),
(316,546,qs),
(316,534,ls),
(316,514,o),
(311,508,q),
(306,505,o),
(305,497,o),
(306,490,qs),
(308,479,o),
(302,471,q),
(270,468,o),
(165,484,o),
(144,498,q),
(129,515,o),
(129,515,q)
);
}
);
width = 452;
}
);
note = H;
unicode = (72,104);
},
{
glyphname = I;
lastChange = "2025-10-03 14:59:39 +0000";
layers = (
{
layerId = m01;
shapes = (
{
closed = 1;
nodes = (
(94,606,o),
(121,634,o),
(121,653,qs),
(121,666,o),
(108,687,o),
(87,700,o),
(74,700,qs),
(55,700,o),
(27,673,o),
(27,653,qs),
(27,634,o),
(55,606,o),
(74,606,qs)
);
},
{
closed = 1;
nodes = (
(101,0,l),
(101,521,l),
(74,521,l),
(50,521,l),
(50,512,o),
(50,503,o),
(50,494,qs),
(50,487,o),
(50,479,qs),
(50,474,o),
(50,468,qs),
(50,453,o),
(50,438,qs),
(50,433,ls),
(50,403,o),
(50,373,qs),
(50,371,l),
(50,314,l),
(50,308,ls),
(50,303,o),
(50,297,qs),
(50,288,o),
(50,278,qs),
(50,271,o),
(50,264,qs),
(50,240,o),
(50,216,qs),
(50,205,o),
(50,194,qs),
(50,188,o),
(50,182,qs),
(50,176,o),
(50,170,qs),
(50,165,o),
(50,159,qs),
(50,157,o),
(50,154,qs),
(50,148,o),
(50,141,qs),
(50,130,o),
(50,120,o),
(50,109,qs),
(50,93,o),
(50,76,qs),
(50,65,o),
(50,53,qs),
(50,48,ls),
(50,43,o),
(50,38,qs),
(50,34,o),
(50,29,o),
(50,25,qs),
(50,22,l),
(50,19,l),
(50,18,l),
(50,9,ls),
(50,7,o),
(50,4,qs),
(50,2,o),
(50,0,q)
);
}
);
width = 148;
},
{
layerId = "B3CF2B1D-9DC0-4956-9CAC-A50305770E90";
shapes = (
{
closed = 1;
nodes = (
(213,676,o),
(165,706,o),
(132,695,qs),
(115,689,o),
(93,656,o),
(96,614,o),
(113,597,qs),
(123,588,o),
(161,582,o),
(178,587,qs),
(194,591,o),
(213,607,o),
(213,619,qs)
);
},
{
closed = 1;
nodes = (
(204,0,l),
(204,521,l),
(162,521,l),
(128,521,l),
(118,518,o),
(110,506,o),
(106,494,qs),
(105,489,o),
(101,479,q),
(101,478,o),
(98,468,qs),
(94,452,o),
(83,438,qs),
(80,433,l),
(73,398,o),
(50,373,q),
(47,371,l),
(32,314,l),
(30,308,ls),
(29,304,o),
(29,297,q),
(31,283,o),
(31,278,qs),
(30,270,o),
(27,264,q),
(21,245,o),
(32,216,q),
(32,208,o),
(30,194,q),
(37,189,o),
(39,182,q),
(39,177,o),
(34,170,qs),
(32,167,o),
(32,159,qs),
(32,157,o),
(31,154,q),
(31,144,o),
(27,141,qs),
(18,134,o),
(21,119,o),
(28,109,qs),
(38,92,o),
(28,76,qs),
(18,62,o),
(31,53,qs),
(38,48,ls),
(46,43,o),
(50,38,qs),
(55,31,o),
(75,26,o),
(91,25,q),
(104,22,l),
(110,19,l),
(112,18,l),
(128,9,l),
(134,8,o),
(139,4,qs),
(143,1,o),
(154,0,qs)
);
}
);
width = 233;
}
);
note = I;
unicode = (73,105);
},
{
glyphname = J;
lastChange = "2025-10-03 14:59:39 +0000";
layers = (
{
layerId = m01;
shapes = (
{
closed = 1;
nodes = (
(354,700,l),
(264,700,l),
(264,254,ls),
(264,245,o),
(264,236,qs),
(265,189,o),
(259,135,o),
(226,100,o),
(190,99,qs),
(163,98,o),
(112,128,o),
(112,173,qs),
(112,174,ls),
(112,196,o),
(112,218,o),
(112,240,q),
(90,240,o),
(68,240,o),
(45,240,qs),
(35,240,o),
(26,240,o),
(16,240,qs),
(15,240,l),
(15,240,o),
(15,240,o),
(15,240,q),
(15,240,o),
(15,240,o),
(15,240,q),
(15,240,o),
(15,240,o),
(15,240,q),
(15,232,o),
(15,224,qs),
(15,206,o),
(15,188,o),
(15,169,q),
(15,169,l),
(15,168,o),
(15,166,o),
(15,165,qs),
(15,164,o),
(15,162,o),
(15,161,qs),
(15,159,o),
(15,158,o),
(15,156,qs),
(15,148,o),
(15,141,o),
(15,133,qs),
(15,123,o),
(15,113,qs),
(15,79,o),
(132,-9,o),
(279,-9,o),
(332,69,qs),
(348,92,o),
(355,170,o),
(354,223,qs),
(354,254,l)
);
}
);
width = 375;
},
{
layerId = "B3CF2B1D-9DC0-4956-9CAC-A50305770E90";
shapes = (
{
closed = 1;
nodes = (
(376,701,l),
(286,701,l),
(286,374,ls),
(286,345,o),
(287,330,qs),
(288,252,o),
(283,166,o),
(256,105,o),
(227,103,qs),
(201,100,o),
(152,131,o),
(132,173,q),
(131,173,l),
(121,177,o),
(114,182,o),
(120,187,q),
(125,195,o),
(78,236,o),
(66,238,q),
(55,242,o),
(50,241,o),
(49,236,q),
(45,226,l),
(42,225,o),
(41,216,o),
(40,212,qs),
(38,202,o),
(34,196,o),
(27,200,q),
(25,204,o),
(19,207,o),
(17,202,q),
(17,195,o),
(16,191,qs),
(15,184,o),
(16,172,o),
(20,169,q),
(25,169,ls),
(28,169,o),
(33,168,o),
(34,165,q),
(35,164,o),
(34,162,o),
(34,161,q),
(33,160,o),
(34,157,o),
(36,156,q),
(45,157,o),
(47,148,o),
(44,139,qs),
(41,124,o),
(41,121,qs),
(45,90,o),
(167,-3,o),
(305,-3,o),
(348,84,qs),
(371,130,o),
(380,237,o),
(377,325,qs),
(376,374,l)
);
}
);
width = 399;
}
);
note = J;
unicode = (74,106);
},
{
glyphname = K;
lastChange = "2025-10-03 14:59:39 +0000";
layers = (
{
layerId = m01;
shapes = (
{
closed = 1;
nodes = (
(159,187,o),
(132,234,o),
(120,255,qs),
(114,266,o),
(107,277,qs),
(103,285,o),
(98,293,q),
(98,293,l),
(96,293,o),
(95,293,o),
(93,293,q),
(93,0,l),
(20,0,l),
(20,428,l),
(20,431,ls),
(20,439,o),
(20,447,qs),
(20,451,ls),
(20,465,o),
(20,479,qs),
(20,483,o),
(20,486,qs),
(20,491,ls),
(20,496,o),
(20,501,o),
(20,506,qs),
(20,507,o),
(20,509,o),
(20,510,qs),
(20,511,ls),
(20,518,o),
(20,525,qs),
(20,531,l),
(20,695,l),
(74,695,l),
(93,695,l),
(93,419,l),
(93,419,o),
(93,419,o),
(93,419,q),
(94,419,o),
(94,419,o),
(95,419,q),
(107,439,o),
(143,499,o),
(162,529,qs),
(180,557,o),
(187,567,qs),
(198,585,ls),
(207,600,o),
(223,626,o),
(228,633,qs),
(235,643,ls),
(239,650,o),
(243,657,qs),
(246,661,o),
(248,664,qs),
(250,668,o),
(252,671,qs),
(254,673,l),
(255,675,o),
(256,677,o),
(257,679,qs),
(260,683,o),
(262,687,qs),
(263,689,o),
(266,693,o),
(267,695,q),
(271,695,o),
(274,695,o),
(278,695,qs),
(280,695,o),
(281,695,o),
(283,695,qs),
(302,695,o),
(320,695,qs),
(337,695,o),
(353,695,q),
(344,681,o),
(336,667,o),
(327,653,qs),
(322,645,o),
(316,636,qs),
(302,613,ls),
(290,594,o),
(278,575,qs),
(271,564,ls),
(265,555,o),
(260,546,o),
(254,536,qs),
(251,531,o),
(248,526,qs),
(242,518,o),
(231,498,o),
(226,491,qs),
(145,361,o),
(144,359,q),
(166,319,ls),
(188,278,o),
(210,238,o),
(232,196,q),
(235,192,o),
(245,171,qs),
(253,156,o),
(262,141,o),
(270,126,q),
(270,125,o),
(307,57,qs),
(314,45,l),
(314,45,o),
(315,44,o),
(315,44,q),
(321,33,o),
(327,22,o),
(333,10,q),
(334,9,l),
(339,9,o),
(339,-1,q),
(320,-1,o),
(301,-1,o),
(282,-1,o),
(263,-1,q),
(260,5,o),
(256,11,qs),
(252,19,o),
(248,26,qs),
(239,42,o),
(230,58,qs),
(220,75,ls),
(209,95,o),
(198,114,qs),
(194,121,ls),
(192,125,o),
(190,129,qs),
(184,140,o),
(177,151,o),
(171,163,qs),
(170,165,o),
(167,169,o),
(166,171,qs),
(164,175,o),
(161,180,o),
(159,184,q)
);
}
);
width = 373;
},
{
layerId = "B3CF2B1D-9DC0-4956-9CAC-A50305770E90";
shapes = (
{
closed = 1;
nodes = (
(141,225,o),
(141,230,o),
(141,235,qs),
(143,253,o),
(141,258,q),
(132,330,o),
(125,335,qs),
(124,336,ls),
(119,340,o),
(108,360,o),
(95,393,q),
(95,0,l),
(20,0,l),
(20,428,l),
(21,431,ls),
(27,443,o),
(27,447,qs),
(27,453,ls),
(25,469,o),
(30,479,qs),
(31,482,o),
(29,486,q),
(28,491,l),
(30,496,o),
(34,505,o),
(36,506,q),
(39,506,o),
(44,508,o),
(46,510,qs),
(47,511,ls),
(60,522,o),
(47,525,qs),
(20,531,l),
(20,654,l),
(88,700,l),
(107,700,l),
(107,453,l),
(116,462,o),
(123,481,o),
(125,495,qs),
(126,503,o),
(130,519,o),
(133,526,q),
(141,539,o),
(171,563,o),
(196,578,qs),
(216,590,o),
(224,596,q),
(234,607,ls),
(239,613,o),
(250,622,o),
(257,623,qs),
(271,625,ls),
(285,628,o),
(292,627,q),
(301,628,o),
(312,632,qs),
(320,636,o),
(324,636,qs),
(328,635,ls),
(332,635,o),
(341,634,o),
(346,635,q),
(353,635,o),
(359,637,qs),
(361,638,o),
(365,638,o),
(367,637,q),
(372,636,o),
(379,630,o),
(379,627,qs),
(378,590,o),
(363,565,o),
(341,557,qs),
(338,556,o),
(322,550,qs),
(311,545,o),
(305,543,qs),
(284,535,o),
(271,525,o),
(265,510,qs),
(263,506,o),
(257,500,qs),
(239,480,ls),
(218,459,o),
(205,440,qs),
(199,429,ls),
(194,421,o),
(185,408,o),
(182,409,q),
(175,409,o),
(174,410,q),
(170,411,o),
(167,408,o),
(164,403,qs),
(158,395,o),
(157,392,q),
(178,350,ls),
(205,298,o),
(227,233,o),
(233,176,qs),
(235,155,o),
(233,116,qs),
(232,89,o),
(234,56,o),
(241,41,q),
(243,39,o),
(270,-18,q),
(274,-29,ls),
(275,-32,o),
(277,-38,o),
(278,-41,qs),
(290,-85,o),
(299,-135,o),
(301,-181,qs),
(301,-183,ls),
(301,-202,o),
(293,-211,qs),
(290,-214,o),
(254,-219,o),
(217,-215,o),
(209,-207,q),
(205,-201,o),
(203,-193,qs),
(201,-186,o),
(201,-172,qs),
(201,-90,o),
(196,-41,qs),
(192,-9,ls),
(185,43,o),
(184,51,qs),
(181,67,ls),
(177,85,o),
(177,100,qs),
(177,130,o),
(174,163,o),
(169,171,qs),
(166,178,o),
(157,190,o),
(153,194,qs),
(147,201,o),
(141,212,o),
(141,220,qs)
);
}
);
width = 391;
}
);
note = K;
unicode = (75,107);
},
{
glyphname = L;
lastChange = "2025-10-03 14:59:39 +0000";
layers = (
{
layerId = m01;
shapes = (
{
closed = 1;
nodes = (
(315,140,l),
(313,140,ls),
(309,140,o),
(305,140,qs),
(298,140,l),
(295,140,ls),
(292,140,o),
(289,140,qs),
(287,140,ls),
(284,140,o),
(280,140,qs),
(261,140,l),
(260,140,ls),
(254,140,o),
(248,140,qs),
(244,140,o),
(240,140,qs),
(237,140,l),
(229,140,l),
(219,140,ls),
(215,140,o),
(210,140,qs),
(201,140,o),
(192,140,qs),
(176,140,ls),
(149,140,o),
(121,140,o),
(93,140,q),
(93,145,o),
(93,150,qs),
(93,157,ls),
(93,161,o),
(93,165,qs),
(93,220,o),
(93,274,qs),
(93,290,ls),
(93,293,o),
(93,295,qs),
(93,298,l),
(93,305,ls),
(93,307,o),
(93,309,qs),
(93,314,ls),
(93,317,o),
(93,321,o),
(93,324,qs),
(93,327,ls),
(93,330,o),
(93,333,qs),
(93,335,l),
(93,339,ls),
(93,344,o),
(93,348,qs),
(93,349,o),
(93,349,o),
(93,350,qs),
(93,357,o),
(93,364,qs),
(93,368,ls),
(93,370,o),
(93,372,qs),
(93,376,o),
(93,380,qs),
(93,381,ls),
(93,384,o),
(93,388,o),
(93,391,qs),
(93,393,l),
(93,395,ls),
(93,401,o),
(93,406,qs),
(93,409,o),
(93,411,qs),
(93,414,l),
(93,424,ls),
(93,429,o),
(93,433,qs),
(93,441,o),
(93,448,o),
(93,456,qs),
(93,459,o),
(93,461,qs),
(93,474,o),
(93,486,qs),
(93,487,o),
(93,488,o),
(93,489,qs),
(93,492,o),
(93,494,qs),
(93,500,l),
(93,502,ls),
(93,513,o),
(93,523,qs),
(93,531,l),
(93,539,l),
(93,549,ls),
(93,554,o),
(93,559,qs),
(93,575,l),
(93,579,l),
(93,700,l),
(20,700,l),
(20,0,l),
(34,0,l),
(353,0,l),
(353,105,l),
(353,140,l),
(353,140,l),
(353,140,l)
);
}
);
width = 373;
},
{
layerId = "B3CF2B1D-9DC0-4956-9CAC-A50305770E90";
shapes = (
{
closed = 1;
nodes = (
(315,134,l),
(313,135,l),
(309,139,o),
(304,139,q),
(297,141,l),
(294,142,l),
(292,146,o),
(288,143,q),
(287,143,l),
(283,147,o),
(280,147,q),
(261,152,l),
(260,153,ls),
(256,157,o),
(249,159,q),
(245,159,o),
(240,164,qs),
(237,167,l),
(229,171,l),
(219,178,l),
(213,180,o),
(211,185,q),
(204,195,o),
(192,195,qs),
(188,195,ls),
(186,195,o),
(182,194,o),
(180,195,qs),
(170,198,o),
(161,204,qs),
(152,211,ls),
(147,216,o),
(147,220,qs),
(147,230,o),
(146,234,q),
(145,250,l),
(150,248,o),
(155,255,qs),
(157,257,l),
(163,266,l),
(165,266,o),
(165,269,qs),
(165,274,ls),
(165,276,o),
(164,282,o),
(165,284,q),
(165,286,l),
(167,291,o),
(163,293,q),
(163,294,l),
(161,299,l),
(161,305,o),
(157,308,q),
(156,308,o),
(156,309,o),
(156,310,q),
(153,317,o),
(148,324,qs),
(146,327,ls),
(144,329,o),
(144,331,qs),
(145,335,o),
(140,340,qs),
(139,341,ls),
(137,343,o),
(135,348,o),
(138,351,q),
(138,353,l),
(139,355,l),
(142,358,o),
(146,366,q),
(146,367,o),
(148,371,q),
(148,374,l),
(143,384,ls),
(140,389,o),
(143,393,qs),
(148,398,o),
(146,412,o),
(140,416,q),
(136,416,o),
(136,421,qs),
(136,438,o),
(135,446,qs),
(135,447,o),
(135,448,o),
(134,449,q),
(133,452,o),
(136,454,q),
(142,461,l),
(143,462,l),
(142,471,o),
(145,482,q),
(146,510,l),
(148,539,l),
(152,549,ls),
(153,551,o),
(156,559,q),
(158,575,l),
(159,579,l),
(159,700,l),
(20,700,l),
(20,0,l),
(34,0,l),
(353,0,l),
(353,90,l),
(353,109,l),
(353,125,l),
(353,134,l)
);
}
);
width = 365;
}
);
note = L;
unicode = (76,108);
},
{
glyphname = M;
lastChange = "2025-10-03 14:59:39 +0000";
layers = (
{
layerId = m01;
shapes = (
{
closed = 1;
nodes = (
(490,111,o),
(490,98,qs),
(490,81,o),
(490,64,qs),
(490,0,l),
(571,0,l),
(571,500,l),
(490,500,l),
(350,230,l),
(350,500,l),
(269,500,l),
(10,0,l),
(109,0,l),
(114,9,ls),
(118,18,o),
(123,26,o),
(127,35,qs),
(138,56,o),
(149,77,o),
(160,99,qs),
(165,108,o),
(170,117,o),
(175,127,qs),
(180,138,o),
(186,148,o),
(191,159,qs),
(200,175,o),
(208,191,o),
(217,208,qs),
(221,215,o),
(232,237,o),
(240,252,q),
(240,252,o),
(240,252,o),
(240,252,q),
(240,252,o),
(240,252,o),
(240,252,q),
(240,252,o),
(240,252,o),
(240,252,q),
(244,260,o),
(249,267,o),
(253,275,qs),
(254,278,o),
(256,281,o),
(257,284,q),
(257,263,o),
(257,242,o),
(257,221,qs),
(257,212,o),
(257,202,qs),
(257,197,o),
(257,192,qs),
(257,188,o),
(257,183,qs),
(257,177,o),
(257,170,qs),
(257,166,o),
(257,162,o),
(257,158,qs),
(257,154,o),
(257,149,qs),
(257,140,o),
(257,131,qs),
(257,130,o),
(257,130,o),
(257,129,q),
(257,129,l),
(257,126,o),
(257,122,qs),
(257,120,o),
(257,118,qs),
(257,114,o),
(257,109,qs),
(257,104,ls),
(257,99,o),
(257,95,o),
(257,90,qs),
(257,84,o),
(257,77,o),
(257,71,qs),
(257,51,o),
(257,31,o),
(257,11,qs),
(257,0,l),
(350,0,l),
(352,4,o),
(354,8,o),
(356,12,qs),
(360,20,o),
(364,28,qs),
(371,41,o),
(378,54,o),
(385,68,qs),
(388,74,o),
(391,79,o),
(394,85,qs),
(396,90,o),
(399,95,o),
(401,100,qs),
(404,105,o),
(407,111,o),
(410,116,qs),
(412,121,o),
(415,125,o),
(417,130,qs),
(419,135,o),
(421,139,qs),
(426,147,o),
(430,155,qs),
(432,159,o),
(433,162,o),
(435,166,qs),
(449,192,o),
(462,217,q),
(462,217,o),
(462,217,o),
(462,217,q),
(462,217,o),
(462,217,o),
(462,217,q),
(462,217,o),
(462,217,o),
(462,217,q),
(462,217,l),
(462,217,o),
(462,217,o),
(462,217,q),
(482,254,ls),
(486,262,o),
(490,270,q),
(490,261,o),
(490,253,o),
(490,244,q),
(490,244,o),
(490,244,o),
(490,244,q),
(490,244,l),
(490,244,o),
(490,245,o),
(490,245,q),
(490,245,o),
(490,245,o),
(490,245,q),
(490,226,o),
(490,206,o),
(490,186,qs),
(490,155,o),
(490,123,qs)
);
}
);
width = 591;
},
{
layerId = "B3CF2B1D-9DC0-4956-9CAC-A50305770E90";
shapes = (
{
closed = 1;
nodes = (
(470,116,o),
(474,98,qs),
(480,78,o),
(477,64,q),
(471,1,l),
(606,1,l),
(606,409,l),
(427,407,l),
(317,406,l),
(159,456,l),
(20,500,l),
(20,1,l),
(109,1,l),
(110,11,ls),
(111,23,o),
(114,41,o),
(117,40,q),
(125,42,o),
(127,89,o),
(124,112,q),
(125,121,o),
(132,134,o),
(138,143,qs),
(146,153,o),
(150,168,o),
(142,179,q),
(154,200,o),
(154,217,o),
(150,224,q),
(147,227,o),
(145,234,o),
(148,240,q),
(145,252,o),
(161,276,o),
(171,281,q),
(172,279,o),
(176,279,o),
(177,280,qs),
(178,281,o),
(182,282,o),
(183,281,qs),
(197,271,o),
(220,265,o),
(235,264,qs),
(250,263,o),
(264,255,o),
(268,240,q),
(278,234,o),
(284,225,o),
(285,219,qs),
(285,210,o),
(291,202,qs),
(292,200,o),
(289,192,q),
(286,188,o),
(286,183,qs),
(287,177,o),
(282,170,qs),
(280,167,o),
(277,161,o),
(279,158,q),
(278,156,o),
(271,149,q),
(260,141,o),
(262,131,q),
(263,130,o),
(267,129,o),
(269,129,qs),
(270,129,l),
(274,126,o),
(267,122,qs),
(263,120,o),
(263,118,qs),
(264,113,o),
(260,109,q),
(257,104,l),
(258,99,o),
(255,93,o),
(253,90,qs),
(251,88,o),
(247,79,o),
(248,71,q),
(244,68,o),
(251,28,o),
(255,12,qs),
(258,1,l),
(349,1,l),
(352,3,o),
(351,10,o),
(350,14,qs),
(346,23,o),
(349,31,qs),
(354,43,o),
(354,76,o),
(351,77,q),
(346,76,o),
(344,91,o),
(345,96,q),
(348,99,o),
(348,111,o),
(344,112,q),
(336,111,o),
(329,121,o),
(327,131,q),
(330,136,o),
(330,140,o),
(326,146,q),
(326,150,o),
(330,156,qs),
(336,166,o),
(334,174,qs),
(333,178,o),
(343,185,o),
(348,188,qs),
(359,193,o),
(355,196,q),
(354,196,o),
(352,198,o),
(353,199,qs),
(358,203,o),
(359,212,o),
(359,216,qs),
(358,221,o),
(361,226,o),
(369,228,qs),
(373,229,ls),
(385,233,o),
(399,233,o),
(405,226,q),
(413,227,ls),
(421,229,o),
(424,226,qs),
(438,214,o),
(466,217,o),
(465,238,q),
(466,241,o),
(472,239,o),
(475,237,qs),
(479,235,l),
(477,231,o),
(479,222,o),
(481,218,qs),
(483,215,o),
(485,209,o),
(485,206,q),
(482,197,o),
(481,184,o),
(481,179,qs),
(483,160,o),
(471,123,q)
);
}
);
width = 626;
}
);
note = M;
unicode = (77,109);
},
{
glyphname = N;
lastChange = "2025-10-03 14:59:39 +0000";
layers = (
{
layerId = m01;
shapes = (
{
closed = 1;
nodes = (
(331,2,l),
(331,500,l),
(282,500,ls),
(275,500,o),
(267,500,qs),
(261,500,o),
(255,500,qs),
(252,500,o),
(249,500,q),
(249,500,o),
(248,500,o),
(248,500,q),
(246,500,o),
(244,500,o),
(242,500,qs),
(240,500,o),
(238,500,qs),
(234,500,o),
(230,500,qs),
(229,500,l),
(226,500,ls),
(223,500,o),
(221,500,o),
(218,500,qs),
(214,500,o),
(209,500,o),
(205,500,qs),
(198,500,o),
(191,500,qs),
(185,500,o),
(179,500,qs),
(74,500,l),
(67,490,o),
(60,481,o),
(53,471,qs),
(46,462,o),
(30,441,o),
(20,427,q),
(21,0,l),
(121,0,l),
(121,443,l),
(124,443,o),
(126,443,q),
(126,443,o),
(127,443,o),
(127,443,q),
(128,443,o),
(128,443,o),
(129,443,q),
(129,443,o),
(130,443,o),
(130,443,q),
(143,443,o),
(155,443,o),
(168,443,qs),
(169,443,o),
(170,443,o),
(171,443,qs),
(174,443,o),
(177,443,qs),
(182,443,o),
(187,443,o),
(192,443,q),
(186,443,l),
(187,443,o),
(187,443,o),
(188,443,qs),
(180,443,o),
(172,443,o),
(163,443,q),
(168,443,o),
(172,443,o),
(177,443,qs),
(187,443,o),
(197,443,qs),
(203,443,o),
(208,443,qs),
(212,443,o),
(215,443,o),
(219,443,qs),
(223,443,o),
(226,443,qs),
(227,443,l),
(229,443,l),
(227,443,o),
(226,443,o),
(224,443,q),
(225,443,o),
(225,443,o),
(226,443,qs),
(231,443,l),
(241,443,ls),
(244,443,o),
(246,443,o),
(249,443,q),
(249,443,l),
(249,436,o),
(249,429,o),
(249,422,qs),
(249,393,o),
(249,363,o),
(249,333,qs),
(249,328,o),
(249,324,o),
(249,319,qs),
(249,311,o),
(249,303,qs),
(249,289,o),
(249,275,qs),
(249,267,o),
(249,259,qs),
(249,253,o),
(249,247,qs),
(249,245,ls),
(249,244,o),
(249,243,o),
(249,242,qs),
(249,238,o),
(249,234,o),
(249,230,qs),
(249,225,ls),
(249,188,o),
(249,151,qs),
(249,111,o),
(249,70,qs),
(249,64,ls),
(249,58,o),
(249,52,qs),
(249,45,o),
(249,37,qs),
(249,33,o),
(249,28,o),
(249,24,qs),
(249,17,o),
(249,9,o),
(249,2,q)
);
}
);
width = 351;
},
{
layerId = "B3CF2B1D-9DC0-4956-9CAC-A50305770E90";
shapes = (
{
closed = 1;
nodes = (
(613,182,l),
(613,700,l),
(524,700,l),
(522,696,o),
(496,684,qs),
(476,675,o),
(476,673,q),
(471,667,o),
(465,670,q),
(465,671,o),
(464,674,o),
(462,676,q),
(460,682,o),
(457,685,o),
(452,683,q),
(450,683,o),
(445,680,qs),
(433,675,o),
(431,676,q),
(428,679,l),
(424,686,l),
(421,689,o),
(410,687,o),
(410,686,q),
(403,683,o),
(392,672,o),
(388,667,qs),
(378,651,o),
(364,648,qs),
(353,646,o),
(338,646,qs),
(27,646,l),
(21,637,o),
(27,622,o),
(35,613,qs),
(46,602,o),
(44,587,o),
(20,577,q),
(21,0,l),
(141,0,l),
(141,323,l),
(148,353,o),
(151,361,qs),
(152,363,o),
(152,369,o),
(152,372,qs),
(152,376,o),
(152,383,o),
(155,384,q),
(156,385,o),
(157,389,o),
(157,392,q),
(169,414,o),
(212,461,o),
(227,471,qs),
(230,473,o),
(234,478,o),
(235,480,qs),
(238,485,o),
(242,485,qs),
(250,486,o),
(266,502,o),
(268,509,qs),
(276,530,ls),
(280,541,o),
(287,556,o),
(292,559,q),
(303,563,o),
(311,583,o),
(308,594,q),
(311,613,o),
(321,622,o),
(333,621,qs),
(354,621,o),
(370,627,qs),
(379,630,o),
(391,640,qs),
(396,644,o),
(405,649,o),
(410,648,qs),
(416,648,o),
(422,644,q),
(424,639,l),
(428,627,ls),
(432,618,o),
(446,624,o),
(448,634,qs),
(448,636,o),
(450,644,o),
(452,644,q),
(460,631,l),
(479,631,l),
(484,629,o),
(492,631,o),
(496,638,q),
(524,638,l),
(524,633,o),
(537,603,o),
(541,603,q),
(543,591,o),
(535,550,o),
(517,483,q),
(515,480,o),
(514,472,o),
(515,469,qs),
(516,465,o),
(509,431,qs),
(498,374,o),
(500,366,qs),
(501,359,o),
(499,349,qs),
(497,340,o),
(500,337,q),
(504,335,l),
(505,335,o),
(507,333,o),
(508,332,qs),
(509,331,o),
(508,324,o),
(508,320,qs),
(507,315,ls),
(506,308,o),
(520,287,qs),
(535,262,o),
(538,250,q),
(544,245,ls),
(550,240,o),
(556,231,qs),
(563,219,o),
(566,217,qs),
(568,215,o),
(571,207,o),
(572,205,q),
(572,201,o),
(576,192,o),
(583,182,q)
);
}
);
width = 633;
}
);
note = N;
unicode = (78,110);
},
{
glyphname = O;
lastChange = "2025-10-03 14:59:39 +0000";
layers = (
{
layerId = m01;
shapes = (
{
closed = 1;
nodes = (
(268,700,o),
(106,606,o),
(12,445,o),
(12,350,qs),
(12,255,o),
(106,94,o),
(268,0,o),
(363,0,qs),
(458,0,o),
(619,94,o),
(713,255,o),
(713,350,qs),
(713,445,o),
(619,606,o),
(458,700,o),
(363,700,qs)
);
},
{
closed = 1;
nodes = (
(322,65,o),
(283,76,qs),
(274,78,o),
(256,85,o),
(248,89,qs),
(241,92,ls),
(235,95,o),
(228,98,q),
(224,101,o),
(219,103,qs),
(216,105,o),
(213,107,qs),
(211,109,o),
(208,110,qs),
(204,112,o),
(201,115,o),
(197,117,q),
(193,121,o),
(188,124,qs),
(186,125,o),
(185,127,o),
(183,128,q),
(169,140,l),
(167,141,l),
(163,145,o),
(159,150,o),
(155,154,qs),
(153,156,o),
(152,158,o),
(150,160,o),
(148,162,qs),
(144,168,o),
(139,173,q),
(135,179,o),
(131,184,qs),
(127,190,o),
(123,196,q),
(121,201,o),
(118,205,qs),
(116,208,o),
(114,211,qs),
(108,221,l),
(107,224,o),
(105,227,qs),
(103,232,o),
(101,237,qs),
(99,242,o),
(97,247,o),
(95,252,qs),
(93,258,o),
(91,263,qs),
(89,269,o),
(88,275,o),
(86,281,qs),
(85,287,ls),
(84,295,o),
(82,303,q),
(82,306,ls),
(81,315,o),
(80,323,qs),
(79,332,l),
(79,334,ls),
(78,339,o),
(78,350,qs),
(78,380,o),
(91,439,o),
(103,467,qs),
(137,542,o),
(273,635,o),
(362,635,qs),
(454,635,o),
(603,522,o),
(665,349,o),
(634,265,qs),
(602,178,o),
(459,65,o),
(362,65,qs)
);
}
);
width = 725;
},
{
layerId = "B3CF2B1D-9DC0-4956-9CAC-A50305770E90";
shapes = (
{
closed = 1;
nodes = (
(276,692,o),
(114,598,o),
(20,437,o),
(20,342,qs),
(20,247,o),
(114,86,o),
(276,-8,o),
(371,-8,qs),
(466,-8,o),
(627,86,o),
(721,247,o),
(721,342,qs),
(721,437,o),
(627,598,o),
(466,692,o),
(371,692,qs)
);
},
{
closed = 1;
nodes = (
(488,88,o),
(452,97,qs),
(445,99,o),
(429,103,o),
(421,105,qs),
(409,107,ls),
(397,109,o),
(391,109,qs),
(372,109,o),
(348,98,qs),
(332,91,o),
(329,93,qs),
(321,98,o),
(315,99,q),
(305,103,o),
(296,112,o),
(293,124,q),
(293,127,o),
(291,133,qs),
(290,135,o),
(288,138,o),
(287,141,qs),
(281,171,l),
(281,174,ls),
(280,179,o),
(279,186,o),
(276,189,q),
(269,203,o),
(238,222,o),
(209,230,o),
(204,231,qs),
(202,231,o),
(195,238,q),
(195,240,o),
(182,240,qs),
(179,240,o),
(176,244,qs),
(175,245,o),
(173,252,q),
(173,256,o),
(172,258,qs),
(166,268,l),
(164,270,o),
(162,277,qs),
(158,287,o),
(155,287,qs),
(146,287,o),
(142,293,o),
(141,302,qs),
(141,314,o),
(136,324,q),
(133,327,o),
(132,335,o),
(131,339,q),
(131,344,l),
(129,350,o),
(136,393,qs),
(137,399,l),
(145,408,o),
(145,416,qs),
(145,417,l),
(145,419,ls),
(145,435,o),
(152,449,q),
(153,461,o),
(129,471,o),
(120,467,q),
(154,538,o),
(290,625,o),
(372,625,qs),
(449,625,o),
(578,549,o),
(653,420,o),
(653,344,qs),
(653,260,o),
(564,122,o),
(490,89,qs)
);
}
);
width = 741;
}
);
note = O;
unicode = (79,111);
},
{
glyphname = P;
lastChange = "2025-10-03 14:59:39 +0000";
layers = (
{
layerId = m01;
shapes = (
{
closed = 1;
nodes = (
(182,490,ls),
(181,480,o),
(177,461,o),
(174,452,qs),
(169,441,o),
(155,423,o),
(146,417,qs),
(140,412,o),
(123,404,o),
(113,401,q),
(85,397,l),
(85,604,l),
(96,604,o),
(116,602,o),
(127,600,qs),
(135,598,o),
(157,587,o),
(164,581,qs),
(173,572,o),
(187,528,o),
(185,505,q)
);
},
{
closed = 1;
nodes = (
(264,512,o),
(264,515,qs),
(264,519,o),
(264,522,o),
(264,526,qs),
(264,584,o),
(240,663,o),
(202,681,q),
(196,683,o),
(189,686,o),
(183,688,q),
(180,690,o),
(176,691,qs),
(173,692,o),
(170,692,q),
(162,694,o),
(154,695,qs),
(135,697,o),
(87,700,o),
(61,700,qs),
(38,700,o),
(15,700,q),
(15,0,l),
(85,0,l),
(85,258,l),
(100,260,o),
(129,267,o),
(142,273,q),
(148,274,o),
(153,278,q),
(157,280,o),
(164,284,o),
(167,286,qs),
(174,291,o),
(180,295,qs),
(187,300,o),
(199,312,qs),
(209,322,o),
(217,335,qs),
(229,353,o),
(234,363,qs),
(249,392,o),
(264,465,o),
(264,509,qs)
);
}
);
width = 284;
},
{
layerId = "B3CF2B1D-9DC0-4956-9CAC-A50305770E90";
shapes = (
{
closed = 1;
nodes = (
(165,480,l),
(165,480,o),
(165,481,o),
(165,481,q),
(165,481,o),
(165,481,o),
(165,481,q),
(165,481,o),
(165,481,o),
(165,481,q),
(165,481,l),
(165,480,l),
(165,480,o),
(165,480,o),
(165,480,q),
(165,480,o),
(165,480,o),
(165,480,q),
(165,480,o),
(165,480,o),
(165,480,q)
);
},
{
closed = 1;
nodes = (
(312,553,o),
(290,570,qs),
(275,581,o),
(265,603,o),
(265,633,qs),
(265,640,o),
(246,658,o),
(240,658,qs),
(226,658,o),
(208,663,o),
(204,672,qs),
(200,680,o),
(192,682,qs),
(185,684,o),
(182,687,q),
(172,707,o),
(125,680,q),
(112,670,o),
(74,665,o),
(49,666,qs),
(25,666,o),
(15,665,q),
(15,0,l),
(86,0,l),
(86,227,l),
(116,227,o),
(139,244,o),
(155,269,qs),
(162,279,o),
(168,288,qs),
(175,299,o),
(196,324,o),
(207,335,qs),
(238,368,o),
(247,382,qs),
(253,391,o),
(258,400,qs),
(264,409,o),
(269,418,q),
(278,428,o),
(287,438,qs),
(307,460,o),
(325,498,o),
(325,536,q)
);
}
);
width = 345;
}
);
note = P;
unicode = (80,112);
},
{
glyphname = Q;
lastChange = "2025-10-03 14:59:39 +0000";
layers = (
{
layerId = m01;
shapes = (
{
closed = 1;
nodes = (
(249,701,o),
(111,607,o),
(30,446,o),
(30,351,qs),
(30,256,o),
(111,95,o),
(249,1,o),
(331,1,qs),
(412,1,o),
(549,95,o),
(630,256,o),
(630,351,qs),
(630,446,o),
(550,607,o),
(412,701,o),
(331,701,qs)
);
},
{
closed = 1;
nodes = (
(277,66,o),
(232,90,qs),
(215,99,l),
(202,108,l),
(189,118,l),
(177,129,l),
(165,141,l),
(153,155,l),
(147,163,l),
(142,170,l),
(139,174,l),
(132,185,l),
(125,197,l),
(118,212,l),
(113,222,ls),
(107,236,o),
(107,238,q),
(103,247,o),
(101,256,qs),
(98,264,l),
(93,288,l),
(90,307,l),
(88,333,ls),
(87,339,o),
(87,351,qs),
(87,408,o),
(108,468,qs),
(137,543,o),
(254,636,o),
(330,636,qs),
(409,636,o),
(537,523,o),
(589,350,o),
(563,266,qs),
(536,180,o),
(413,66,o),
(330,66,qs)
);
},
{
closed = 1;
nodes = (
(496,28,l),
(494,30,o),
(492,32,qs),
(488,37,o),
(485,41,o),
(481,46,qs),
(477,50,l),
(473,56,l),
(470,59,l),
(378,172,l),
(312,172,l),
(404,60,l),
(405,58,l),
(407,56,o),
(408,54,q),
(409,54,o),
(410,52,o),
(411,51,qs),
(414,47,o),
(418,42,o),
(421,38,qs),
(423,36,o),
(424,35,o),
(426,33,qs),
(427,32,l),
(430,28,l),
(465,-15,l),
(581,-15,l),
(546,28,l)
);
}
);
width = 660;
},
{
layerId = "B3CF2B1D-9DC0-4956-9CAC-A50305770E90";
shapes = (
{
closed = 1;
nodes = (
(249,700,o),
(111,606,o),
(30,445,o),
(30,350,qs),
(30,255,o),
(111,94,o),
(249,0,o),
(331,0,qs),
(412,0,o),
(549,94,o),
(630,255,o),
(630,350,qs),
(630,445,o),
(550,606,o),
(412,700,o),
(331,700,qs)
);
},
{
closed = 1;
nodes = (
(277,65,o),
(232,89,qs),
(215,98,l),
(202,107,l),
(189,117,l),
(177,128,l),
(165,140,l),
(153,154,l),
(147,162,l),
(142,169,l),
(139,173,l),
(132,184,l),
(125,196,l),
(118,211,l),
(113,221,ls),
(107,235,o),
(107,237,q),
(103,246,o),
(101,255,qs),
(98,263,l),
(93,287,l),
(90,306,l),
(88,332,ls),
(87,338,o),
(87,350,qs),
(87,407,o),
(108,467,qs),
(137,542,o),
(254,635,o),
(330,635,qs),
(409,635,o),
(537,522,o),
(589,349,o),
(563,265,qs),
(536,179,o),
(413,65,o),
(330,65,qs)
);
},
{
closed = 1;
nodes = (
(499,57,l),
(494,60,o),
(475,77,qs),
(458,92,o),
(434,107,o),
(419,107,q),
(422,115,l),
(425,125,l),
(424,130,l),
(424,220,l),
(344,220,l),
(344,132,l),
(349,128,l),
(350,125,o),
(357,122,qs),
(359,121,o),
(359,118,o),
(357,117,q),
(352,110,o),
(359,98,o),
(370,94,qs),
(376,92,o),
(378,87,o),
(372,85,qs),
(362,83,l),
(336,75,l),
(336,0,l),
(583,0,l),
(583,67,l)
);
}
);
width = 660;
}
);
note = Q;
unicode = (81,113);
},
{
glyphname = R;
lastChange = "2025-10-03 14:59:39 +0000";
layers = (
{
layerId = m01;
shapes = (
{
closed = 1;
nodes = (
(137,497,l),
(20,497,l),
(20,0,l),
(137,0,l),
(137,290,ls),
(137,319,o),
(137,347,o),
(137,377,q),
(153,386,o),
(183,396,o),
(196,398,q),
(205,398,o),
(208,397,qs),
(213,396,o),
(215,377,o),
(214,356,qs),
(214,336,ls),
(214,317,o),
(214,298,o),
(214,278,o),
(214,259,q),
(236,266,o),
(284,284,o),
(306,292,qs),
(316,296,ls),
(320,298,o),
(325,299,o),
(329,301,qs),
(344,307,o),
(359,312,q),
(359,356,o),
(359,399,qs),
(359,404,o),
(359,408,o),
(359,413,qs),
(360,450,o),
(342,492,o),
(305,499,q),
(275,493,o),
(204,468,o),
(146,442,o),
(137,435,q)
);
}
);
width = 380;
},
{
layerId = "B3CF2B1D-9DC0-4956-9CAC-A50305770E90";
shapes = (
{
closed = 1;
nodes = (
(125,700,l),
(20,618,l),
(23,0,l),
(204,0,l),
(204,404,ls),
(204,458,o),
(293,528,o),
(353,535,q),
(374,532,o),
(388,511,o),
(394,489,qs),
(398,477,o),
(401,464,q),
(410,442,o),
(418,413,o),
(420,396,qs),
(422,371,ls),
(423,354,o),
(441,297,o),
(468,257,o),
(482,262,q),
(510,281,o),
(522,293,o),
(531,311,qs),
(537,322,l),
(541,323,o),
(547,322,o),
(551,322,qs),
(571,320,o),
(575,329,qs),
(585,354,o),
(611,354,qs),
(642,354,o),
(649,423,o),
(641,475,qs),
(640,481,o),
(640,488,o),
(639,494,qs),
(630,574,o),
(611,654,o),
(564,697,o),
(518,697,qs)
);
}
);
width = 667;
}
);
note = R;
unicode = (82,114);
},
{
glyphname = S;
lastChange = "2025-10-03 14:59:39 +0000";
layers = (
{
layerId = m01;
shapes = (
{
closed = 1;
nodes = (
(89,156,o),
(88,156,o),
(86,156,q),
(87,156,o),
(87,156,o),
(86,156,qs),
(85,156,o),
(84,156,o),
(83,156,qs),
(81,156,o),
(78,156,o),
(76,156,qs),
(68,156,o),
(60,156,o),
(51,156,qs),
(44,156,l),
(27,156,l),
(27,0,l),
(120,0,l),
(173,0,ls),
(213,-2,o),
(259,14,o),
(271,38,qs),
(285,65,o),
(285,120,qs),
(285,124,o),
(285,128,o),
(285,132,qs),
(285,146,o),
(284,159,qs),
(284,173,o),
(284,187,qs),
(284,196,o),
(284,205,o),
(284,215,qs),
(283,266,o),
(281,316,q),
(233,316,o),
(185,316,qs),
(182,316,ls),
(167,316,o),
(152,316,o),
(136,316,qs),
(115,315,o),
(105,321,o),
(105,329,q),
(105,329,o),
(105,330,o),
(105,330,q),
(105,337,o),
(109,343,o),
(121,344,o),
(131,344,qs),
(136,344,ls),
(152,344,o),
(167,344,qs),
(205,344,o),
(243,344,o),
(282,344,q),
(282,344,o),
(282,344,o),
(282,344,q),
(282,344,o),
(282,344,o),
(282,344,q),
(282,344,l),
(282,344,o),
(282,344,o),
(282,344,q),
(282,362,o),
(282,379,o),
(282,397,o),
(282,414,qs),
(282,452,ls),
(282,476,o),
(282,500,q),
(208,500,l),
(124,500,ls),
(79,501,o),
(35,458,o),
(22,388,o),
(20,327,qs),
(20,245,o),
(74,184,o),
(104,183,qs),
(138,183,o),
(171,182,qs),
(185,182,o),
(201,181,o),
(204,176,o),
(204,168,qs),
(204,160,o),
(199,156,o),
(193,156,qs),
(175,156,o),
(157,156,qs),
(141,156,ls),
(133,156,o),
(126,156,o),
(118,156,qs),
(112,156,o),
(105,156,qs),
(91,156,ls)
);
}
);
width = 305;
},
{
layerId = "B3CF2B1D-9DC0-4956-9CAC-A50305770E90";
shapes = (
{
closed = 1;
nodes = (
(120,128,o),
(103,135,o),
(94,138,qs),
(89,139,o),
(81,142,o),
(79,144,qs),
(77,147,o),
(76,153,o),
(76,156,q),
(75,159,o),
(73,165,o),
(69,168,qs),
(66,171,o),
(50,173,o),
(44,172,qs),
(37,172,l),
(20,173,l),
(20,0,l),
(512,0,l),
(512,208,l),
(509,210,o),
(507,212,o),
(504,214,qs),
(501,216,o),
(498,218,qs),
(495,220,o),
(472,220,o),
(457,219,qs),
(427,217,o),
(384,219,q),
(374,229,o),
(368,247,qs),
(365,254,o),
(358,269,o),
(351,275,qs),
(342,284,o),
(336,319,q),
(330,334,o),
(301,341,q),
(298,341,ls),
(265,344,o),
(222,344,o),
(204,336,qs),
(193,331,o),
(154,329,o),
(134,329,qs),
(102,329,o),
(72,326,o),
(63,319,q),
(79,367,o),
(109,411,o),
(161,422,o),
(210,412,qs),
(230,407,ls),
(240,405,o),
(259,407,qs),
(266,408,o),
(281,409,o),
(287,407,q),
(290,407,o),
(299,402,o),
(303,400,q),
(308,396,o),
(319,391,o),
(324,392,qs),
(338,393,l),
(340,394,o),
(344,394,o),
(346,393,q),
(376,386,o),
(418,393,o),
(448,413,o),
(471,435,qs),
(489,452,l),
(503,474,o),
(501,500,q),
(20,500,l),
(20,253,ls),
(20,250,o),
(21,244,o),
(21,237,o),
(21,234,q),
(39,250,o),
(82,266,o),
(102,270,qs),
(145,279,o),
(190,256,qs),
(215,243,o),
(256,204,o),
(280,171,o),
(283,165,qs),
(285,160,o),
(261,146,o),
(251,143,qs),
(238,140,o),
(230,133,qs),
(214,118,ls),
(208,111,o),
(195,101,o),
(191,102,qs),
(187,103,o),
(178,112,q),
(124,123,l)
);
}
);
width = 532;
}
);
note = S;
unicode = (83,115);
},
{
glyphname = T;
lastChange = "2025-10-03 14:59:39 +0000";
layers = (
{
layerId = m01;
shapes = (
{
closed = 1;
nodes = (
(157,182,l),
(157,172,l),
(157,179,o),
(157,186,qs),
(157,187,ls),
(157,197,o),
(157,206,qs),
(157,218,o),
(157,230,o),
(157,242,qs),
(157,263,o),
(157,283,qs),
(157,292,l),
(157,304,ls),
(157,312,o),
(157,319,qs),
(157,321,o),
(157,323,qs),
(157,326,l),
(157,338,ls),
(157,346,o),
(157,353,qs),
(157,358,o),
(157,362,qs),
(157,376,o),
(157,389,o),
(157,403,qs),
(157,405,ls),
(157,407,o),
(157,410,o),
(157,412,qs),
(157,430,l),
(203,430,l),
(219,430,l),
(219,526,l),
(219,526,o),
(219,526,o),
(219,526,q),
(219,526,l),
(215,554,o),
(216,556,o),
(217,543,qs),
(218,535,o),
(219,526,q),
(226,526,o),
(233,526,qs),
(217,526,o),
(202,526,o),
(186,526,qs),
(103,525,l),
(104,525,ls),
(112,525,o),
(119,525,qs),
(126,525,o),
(133,525,qs),
(134,525,o),
(135,525,o),
(136,525,qs),
(140,525,ls),
(145,525,o),
(150,525,qs),
(154,525,o),
(157,525,q),
(156,700,l),
(156,700,l),
(156,700,o),
(156,700,o),
(156,700,q),
(140,700,o),
(124,700,o),
(108,700,qs),
(152,700,o),
(195,700,q),
(192,700,o),
(188,700,qs),
(182,700,o),
(175,700,qs),
(171,700,o),
(166,700,qs),
(165,700,o),
(163,700,qs),
(159,700,ls),
(153,700,o),
(146,700,qs),
(142,700,o),
(137,700,qs),
(123,700,l),
(85,700,ls),
(84,700,o),
(83,700,o),
(82,700,q),
(82,700,o),
(83,700,o),
(83,700,q),
(82,700,o),
(81,700,o),
(80,700,qs),
(95,700,o),
(109,700,q),
(94,700,ls),
(90,700,o),
(85,700,qs),
(78,700,o),
(71,700,q),
(71,585,l),
(71,584,ls),
(71,565,o),
(71,546,o),
(71,526,q),
(10,526,l),
(10,430,l),
(71,430,l),
(71,408,o),
(71,386,qs),
(71,370,o),
(71,354,qs),
(71,352,o),
(71,350,qs),
(71,349,o),
(71,348,o),
(71,347,qs),
(71,345,o),
(71,343,qs),
(71,337,o),
(71,330,qs),
(71,323,o),
(71,315,qs),
(71,308,o),
(71,300,qs),
(71,298,o),
(71,296,o),
(71,294,qs),
(71,288,o),
(71,282,qs),
(71,269,o),
(71,255,qs),
(71,246,o),
(71,236,qs),
(71,226,o),
(71,215,qs),
(71,214,ls),
(71,213,o),
(71,213,o),
(71,212,qs),
(71,210,ls),
(71,209,o),
(71,209,o),
(71,208,qs),
(71,203,o),
(71,197,qs),
(71,192,o),
(71,187,q),
(71,187,l),
(71,186,l),
(71,186,l),
(71,182,o),
(71,178,o),
(71,174,qs),
(71,143,ls),
(71,132,o),
(71,121,qs),
(71,115,l),
(71,116,o),
(71,116,q),
(71,157,o),
(71,197,q),
(71,195,o),
(71,192,o),
(71,190,q),
(71,191,ls),
(71,192,o),
(71,192,o),
(71,193,qs),
(71,158,o),
(71,124,o),
(71,88,qs),
(71,48,o),
(87,4,o),
(111,0,q),
(163,0,l),
(219,0,l),
(219,118,l),
(210,118,ls),
(209,118,o),
(207,118,qs),
(204,118,ls),
(178,118,o),
(170,121,qs),
(155,125,o),
(157,145,q),
(157,145,l),
(157,146,o),
(157,147,o),
(157,148,qs),
(157,149,o),
(157,149,o),
(157,148,qs),
(157,152,o),
(157,155,qs)
);
}
);
width = 254;
},
{
layerId = "B3CF2B1D-9DC0-4956-9CAC-A50305770E90";
shapes = (
{
closed = 1;
nodes = (
(218,167,l),
(188,222,l),
(189,229,o),
(196,236,qs),
(197,237,l),
(201,245,o),
(198,256,qs),
(197,263,o),
(195,281,o),
(196,292,qs),
(200,329,o),
(210,333,q),
(214,342,l),
(229,354,l),
(234,361,o),
(235,369,q),
(236,371,o),
(240,373,q),
(243,376,l),
(244,388,ls),
(244,394,o),
(247,403,q),
(250,408,o),
(253,412,qs),
(261,424,o),
(271,444,o),
(272,453,qs),
(272,455,ls),
(272,457,o),
(271,460,o),
(272,462,qs),
(279,478,l),
(282,478,l),
(470,418,l),
(529,515,l),
(533,528,o),
(533,547,o),
(531,563,qs),
(529,575,ls),
(528,584,o),
(522,587,o),
(514,585,qs),
(504,583,o),
(497,583,q),
(497,585,o),
(491,577,q),
(482,568,o),
(449,539,o),
(428,523,q),
(345,548,l),
(346,555,l),
(353,560,o),
(361,558,qs),
(369,556,o),
(375,562,qs),
(376,563,o),
(378,565,o),
(378,566,q),
(382,569,ls),
(386,571,o),
(392,571,qs),
(394,571,o),
(399,576,qs),
(488,679,l),
(488,680,ls),
(488,681,o),
(489,682,o),
(488,683,q),
(486,693,o),
(450,693,o),
(435,689,q),
(418,682,o),
(397,682,q),
(394,679,o),
(390,679,q),
(383,676,o),
(377,676,qs),
(372,676,o),
(368,678,q),
(367,679,o),
(365,679,qs),
(361,679,ls),
(357,679,o),
(345,673,qs),
(335,668,o),
(334,668,qs),
(320,671,l),
(272,651,l),
(270,648,o),
(269,645,o),
(269,644,q),
(270,643,o),
(270,641,o),
(270,639,qs),
(270,635,o),
(269,628,o),
(267,625,qs),
(265,623,o),
(256,621,qs),
(241,617,l),
(235,617,o),
(232,614,qs),
(229,612,o),
(228,608,q),
(218,603,l),
(218,603,l),
(215,603,o),
(209,593,o),
(204,579,q),
(68,621,l),
(10,557,l),
(131,514,l),
(136,511,o),
(138,511,qs),
(157,510,o),
(154,504,qs),
(153,501,o),
(149,500,qs),
(147,500,o),
(144,498,o),
(142,497,q),
(140,495,o),
(135,493,q),
(132,490,o),
(130,480,q),
(130,472,o),
(128,465,q),
(127,452,o),
(122,450,q),
(121,448,o),
(110,444,o),
(107,444,q),
(104,443,o),
(104,432,q),
(115,425,o),
(122,405,qs),
(127,394,o),
(128,386,q),
(124,365,o),
(118,365,q),
(115,364,l),
(113,364,o),
(110,363,o),
(110,362,q),
(109,360,l),
(108,360,o),
(107,359,o),
(107,358,q),
(102,351,o),
(96,347,q),
(88,339,o),
(82,337,q),
(78,337,l),
(74,336,l),
(72,336,l),
(69,334,o),
(66,326,o),
(66,324,q),
(52,293,ls),
(47,283,o),
(47,271,q),
(45,265,l),
(43,262,o),
(47,253,q),
(50,240,o),
(49,237,q),
(49,235,o),
(46,230,o),
(43,230,q),
(40,231,l),
(39,232,o),
(37,233,o),
(36,233,qs),
(33,233,o),
(29,228,o),
(29,226,q),
(25,217,o),
(18,125,o),
(17,104,q),
(77,0,l),
(329,0,l),
(329,99,l),
(320,99,l),
(318,97,o),
(317,100,q),
(314,103,l),
(305,103,o),
(295,102,qs),
(288,102,o),
(286,100,qs),
(272,87,l),
(269,86,o),
(246,100,o),
(245,103,qs),
(244,106,o),
(243,110,o),
(242,113,q),
(240,129,o),
(234,140,qs)
);
}
);
width = 543;
}
);
note = T;
unicode = (84,116);
},
{
glyphname = U;
lastChange = "2025-10-03 14:59:39 +0000";
layers = (
{
layerId = m01;
shapes = (
{
closed = 1;
nodes = (
(308,273,o),
(307,264,qs),
(304,204,o),
(270,82,o),
(206,0,o),
(162,1,qs),
(116,2,o),
(45,118,o),
(29,206,qs),
(21,248,o),
(20,291,qs),
(20,700,l),
(84,700,l),
(84,699,o),
(84,698,o),
(84,697,qs),
(84,696,o),
(84,696,o),
(84,695,qs),
(84,692,o),
(84,689,qs),
(84,687,o),
(84,686,o),
(84,684,q),
(84,684,l),
(84,673,ls),
(84,669,o),
(84,665,qs),
(84,658,o),
(84,651,qs),
(84,647,o),
(84,642,qs),
(84,639,o),
(84,635,qs),
(84,627,l),
(84,624,ls),
(84,609,o),
(84,594,qs),
(84,586,l),
(84,577,ls),
(84,568,o),
(84,559,o),
(84,549,q),
(84,549,l),
(84,543,l),
(84,543,o),
(84,542,o),
(84,542,q),
(84,532,o),
(84,522,o),
(84,511,qs),
(84,510,l),
(84,510,o),
(84,509,o),
(84,509,q),
(88,319,ls),
(89,265,o),
(134,203,o),
(165,201,qs),
(200,199,o),
(251,261,o),
(250,319,qs),
(250,417,o),
(249,515,qs),
(249,523,o),
(249,531,qs),
(249,537,o),
(249,542,qs),
(249,554,l),
(249,563,ls),
(249,571,o),
(249,578,o),
(249,586,qs),
(249,594,l),
(249,594,l),
(249,599,ls),
(249,616,o),
(249,633,qs),
(249,650,l),
(249,661,ls),
(249,670,o),
(249,678,qs),
(249,682,o),
(249,686,qs),
(249,688,o),
(249,690,qs),
(249,692,ls),
(249,696,o),
(249,700,q),
(308,700,l),
(308,291,ls)
);
}
);
width = 328;
},
{
layerId = "B3CF2B1D-9DC0-4956-9CAC-A50305770E90";
shapes = (
{
closed = 1;
nodes = (
(503,216,o),
(496,207,qs),
(455,152,o),
(384,67,o),
(299,1,o),
(262,1,qs),
(215,1,o),
(117,109,o),
(57,198,qs),
(31,237,o),
(20,251,q),
(20,700,l),
(121,700,ls),
(126,700,o),
(132,699,o),
(134,697,q),
(136,697,o),
(139,696,o),
(139,695,q),
(142,692,o),
(142,689,q),
(143,687,o),
(150,685,o),
(159,684,qs),
(169,684,l),
(178,673,ls),
(184,667,o),
(184,665,qs),
(184,662,o),
(178,651,q),
(178,646,o),
(176,642,qs),
(174,638,o),
(174,635,qs),
(174,627,l),
(171,624,l),
(166,610,o),
(169,594,q),
(169,586,l),
(171,577,l),
(171,562,o),
(166,549,o),
(163,549,qs),
(159,549,l),
(159,543,ls),
(159,542,o),
(160,542,o),
(162,542,qs),
(167,542,o),
(179,523,o),
(181,511,q),
(184,507,l),
(184,506,o),
(185,504,o),
(186,504,qs),
(189,504,ls),
(191,504,o),
(192,505,o),
(194,505,q),
(195,506,o),
(198,507,o),
(200,507,qs),
(207,507,o),
(212,515,qs),
(219,528,o),
(219,531,qs),
(219,539,o),
(221,545,qs),
(224,554,l),
(230,563,ls),
(236,575,o),
(241,585,o),
(243,586,q),
(246,594,l),
(251,594,l),
(251,599,l),
(255,607,o),
(278,619,qs),
(295,630,l),
(303,640,l),
(311,647,o),
(314,654,q),
(314,662,o),
(318,662,q),
(318,664,o),
(320,666,qs),
(323,668,ls),
(326,670,o),
(326,676,q),
(510,676,l),
(510,225,l)
);
}
);
width = 540;
}
);
note = U;
unicode = (85,117);
},
{
glyphname = V;
lastChange = "2025-10-03 14:59:39 +0000";
layers = (
{
layerId = m01;
shapes = (
{
closed = 1;
nodes = (
(337,0,l),
(342,10,o),
(573,603,qs),
(611,700,l),
(531,700,l),
(527,683,o),
(480,575,qs),
(470,553,o),
(456,520,o),
(453,511,qs),
(450,502,o),
(446,494,o),
(443,485,qs),
(430,446,o),
(406,386,qs),
(402,374,o),
(397,362,qs),
(389,341,o),
(381,319,o),
(372,297,qs),
(368,287,o),
(363,272,o),
(361,266,qs),
(359,258,o),
(357,253,qs),
(355,249,ls),
(354,246,o),
(353,242,qs),
(351,237,o),
(347,226,o),
(345,221,qs),
(342,214,o),
(340,208,o),
(337,201,qs),
(334,193,o),
(331,185,qs),
(328,176,o),
(324,167,o),
(321,157,qs),
(319,150,o),
(316,144,o),
(314,137,q),
(294,189,o),
(274,242,o),
(253,296,qs),
(238,336,o),
(223,375,qs),
(217,393,o),
(210,410,qs),
(203,427,o),
(191,460,o),
(185,474,qs),
(181,485,o),
(176,496,qs),
(173,505,o),
(170,514,qs),
(161,538,o),
(153,562,o),
(144,586,qs),
(143,588,ls),
(134,607,o),
(118,649,qs),
(112,666,o),
(105,683,o),
(99,700,q),
(12,700,l),
(86,513,o),
(159,325,qs),
(207,202,ls),
(210,195,o),
(213,187,qs),
(215,181,o),
(219,171,o),
(220,167,qs),
(227,148,ls),
(231,137,o),
(235,127,o),
(239,116,qs),
(242,109,o),
(245,102,qs),
(249,94,o),
(255,78,qs),
(267,43,l),
(271,35,l),
(276,22,l),
(280,11,l),
(285,0,l)
);
}
);
width = 623;
},
{
layerId = "B3CF2B1D-9DC0-4956-9CAC-A50305770E90";
shapes = (
{
closed = 1;
nodes = (
(433,0,l),
(437,7,o),
(722,570,qs),
(769,662,l),
(726,662,l),
(725,658,o),
(723,654,q),
(719,639,o),
(711,626,o),
(699,620,q),
(695,615,o),
(690,602,o),
(687,596,qs),
(683,587,o),
(678,578,q),
(671,569,o),
(654,537,qs),
(632,495,o),
(597,446,o),
(579,445,q),
(567,438,o),
(551,439,o),
(545,445,qs),
(540,450,o),
(531,468,q),
(528,469,l),
(521,469,o),
(519,468,q),
(514,463,o),
(503,462,o),
(496,464,qs),
(489,467,o),
(479,465,o),
(474,458,qs),
(465,445,o),
(456,441,q),
(443,438,o),
(428,418,o),
(421,401,qs),
(415,387,o),
(405,370,o),
(396,365,q),
(381,362,o),
(364,384,o),
(354,407,qs),
(342,435,o),
(333,441,q),
(311,473,o),
(303,483,qs),
(289,502,o),
(263,530,o),
(250,540,q),
(239,540,o),
(229,542,qs),
(220,545,o),
(204,545,qs),
(181,546,o),
(149,575,o),
(131,600,qs),
(127,606,ls),
(114,625,o),
(95,640,qs),
(81,651,o),
(64,675,o),
(57,700,q),
(12,700,l),
(18,687,o),
(105,394,qs),
(139,283,l),
(144,273,o),
(158,266,qs),
(164,262,o),
(176,253,o),
(179,248,q),
(190,237,ls),
(204,224,o),
(221,210,o),
(235,207,q),
(245,199,o),
(251,196,q),
(274,179,o),
(277,175,q),
(316,98,l),
(326,78,l),
(340,50,l),
(352,24,l),
(365,0,l)
);
}
);
width = 781;
}
);
note = V;
unicode = (86,118);
},
{
glyphname = W;
lastChange = "2025-10-03 14:59:39 +0000";
layers = (
{
layerId = m01;
shapes = (
{
closed = 1;
nodes = (
(674,500,l),
(612,500,l),
(534,121,l),
(498,120,l),
(413,500,l),
(375,500,l),
(310,120,l),
(182,120,l),
(107,500,l),
(20,500,l),
(24,468,o),
(92,162,o),
(130,0,q),
(138,0,o),
(146,0,q),
(135,0,o),
(123,0,q),
(127,0,l),
(133,0,ls),
(136,0,o),
(138,0,qs),
(141,0,ls),
(145,0,o),
(149,0,o),
(153,0,qs),
(160,0,o),
(166,0,o),
(173,0,qs),
(179,0,o),
(185,0,o),
(191,0,q),
(191,0,l),
(194,0,o),
(197,0,qs),
(202,0,o),
(208,0,o),
(213,0,qs),
(222,0,ls),
(227,0,o),
(232,0,qs),
(237,0,o),
(242,0,qs),
(254,0,l),
(262,0,l),
(266,0,ls),
(267,0,o),
(268,0,o),
(269,0,qs),
(272,0,o),
(275,0,q),
(275,0,o),
(276,0,o),
(276,0,q),
(277,0,ls),
(280,0,o),
(282,0,o),
(285,0,q),
(285,0,l),
(285,0,o),
(286,0,o),
(286,0,q),
(288,0,ls),
(293,0,o),
(297,0,qs),
(303,0,o),
(309,0,qs),
(318,0,l),
(322,0,l),
(329,0,ls),
(342,0,o),
(355,0,o),
(369,0,q),
(405,378,l),
(437,0,l),
(578,0,l),
(623,231,ls),
(629,262,o),
(636,294,o),
(642,326,qs),
(651,373,o),
(660,419,qs)
);
}
);
width = 694;
},
{
layerId = "B3CF2B1D-9DC0-4956-9CAC-A50305770E90";
shapes = (
{
closed = 1;
nodes = (
(806,700,l),
(753,695,l),
(725,248,l),
(674,246,l),
(517,692,l),
(460,608,l),
(415,543,l),
(358,459,l),
(253,678,l),
(12,517,l),
(18,443,o),
(24,370,o),
(30,294,q),
(43,283,o),
(53,269,q),
(63,259,o),
(76,256,q),
(82,253,l),
(90,248,l),
(94,244,o),
(97,244,qs),
(101,244,ls),
(106,244,o),
(116,242,o),
(118,237,q),
(122,235,o),
(139,220,o),
(146,213,qs),
(151,207,o),
(163,203,o),
(172,202,q),
(172,202,l),
(175,201,o),
(181,201,qs),
(187,201,o),
(198,198,o),
(202,193,q),
(215,185,ls),
(225,179,o),
(229,175,q),
(237,173,o),
(243,167,q),
(260,155,l),
(271,150,l),
(277,146,l),
(278,146,o),
(280,145,o),
(281,144,qs),
(309,118,o),
(317,109,q),
(318,109,o),
(319,108,o),
(319,107,q),
(320,106,l),
(325,106,o),
(329,102,o),
(331,99,q),
(331,99,l),
(331,98,o),
(332,98,o),
(333,98,q),
(335,97,ls),
(341,94,o),
(348,87,qs),
(359,78,o),
(365,76,q),
(377,66,l),
(383,62,l),
(393,56,ls),
(412,44,o),
(444,34,o),
(463,39,q),
(499,529,l),
(543,0,l),
(742,0,l),
(964,323,l),
(960,328,o),
(939,410,o),
(928,456,qs),
(900,578,o),
(893,587,qs)
);
}
);
width = 984;
}
);
note = W;
unicode = (87,119);
},
{
glyphname = X;
lastChange = "2025-10-03 14:59:39 +0000";
layers = (
{
layerId = m01;
shapes = (
{
closed = 1;
nodes = (
(508,39,o),
(397,220,qs),
(329,331,ls),
(327,335,o),
(318,350,qs),
(313,358,o),
(308,365,o),
(303,373,q),
(309,398,o),
(319,424,qs),
(324,440,ls),
(327,450,o),
(335,475,o),
(338,481,q),
(353,527,ls),
(366,571,o),
(408,699,q),
(325,699,l),
(269,477,ls),
(265,462,o),
(261,447,qs),
(258,432,l),
(252,442,o),
(235,472,qs),
(230,482,ls),
(221,499,o),
(212,516,qs),
(169,593,l),
(110,699,l),
(12,699,l),
(88,567,ls),
(149,463,o),
(159,442,qs),
(177,411,o),
(190,386,q),
(190,386,l),
(191,384,o),
(192,382,o),
(193,380,qs),
(198,372,o),
(208,355,o),
(212,348,q),
(175,242,ls),
(104,30,o),
(90,0,q),
(173,0,l),
(194,69,ls),
(263,286,o),
(264,295,q),
(269,281,o),
(408,43,o),
(434,0,q),
(440,0,o),
(445,0,qs),
(450,0,o),
(455,0,qs),
(473,0,l),
(535,0,l)
);
}
);
width = 547;
},
{
layerId = "B3CF2B1D-9DC0-4956-9CAC-A50305770E90";
shapes = (
{
closed = 1;
nodes = (
(610,44,o),
(433,247,qs),
(353,338,ls),
(349,343,o),
(351,352,qs),
(352,357,o),
(350,362,o),
(345,363,qs),
(336,366,o),
(328,374,q),
(324,382,ls),
(323,385,o),
(323,390,o),
(324,392,qs),
(352,457,ls),
(406,584,o),
(459,700,q),
(386,700,l),
(310,435,ls),
(306,417,o),
(300,402,qs),
(295,385,l),
(288,408,o),
(280,430,qs),
(274,450,ls),
(266,477,o),
(264,488,qs),
(243,594,l),
(128,700,l),
(12,700,l),
(85,598,ls),
(184,457,o),
(199,441,qs),
(217,423,o),
(260,364,q),
(260,363,l),
(257,353,o),
(259,342,o),
(268,339,qs),
(277,336,o),
(290,315,o),
(287,309,qs),
(204,120,ls),
(178,60,o),
(151,0,q),
(222,0,l),
(238,53,ls),
(316,307,o),
(317,316,q),
(325,293,o),
(348,223,o),
(349,215,qs),
(355,179,o),
(360,127,qs),
(362,114,o),
(369,108,qs),
(491,0,l),
(658,0,l)
);
}
);
width = 670;
}
);
note = X;
unicode = (88,120);
},
{
glyphname = Y;
lastChange = "2025-10-03 14:59:39 +0000";
layers = (
{
layerId = m01;
shapes = (
{
closed = 1;
nodes = (
(301,500,l),
(197,-99,l),
(190,-137,ls),
(183,-172,o),
(159,-203,o),
(127,-210,o),
(95,-209,qs),
(73,-208,o),
(44,-209,q),
(44,-184,o),
(44,-160,o),
(44,-134,qs),
(44,-113,o),
(44,-92,q),
(49,-92,o),
(54,-92,o),
(59,-92,qs),
(91,-94,o),
(104,-88,qs),
(116,-83,o),
(113,-35,o),
(106,8,qs),
(102,36,l),
(100,38,o),
(60,268,qs),
(20,500,l),
(96,500,l),
(100,481,o),
(110,433,o),
(114,413,qs),
(116,404,ls),
(119,392,o),
(121,380,q),
(121,374,o),
(123,366,q),
(124,365,o),
(124,363,o),
(124,362,qs),
(124,359,l),
(126,354,o),
(126,351,qs),
(126,350,ls),
(127,347,o),
(128,344,qs),
(130,335,o),
(131,326,qs),
(133,315,l),
(134,315,o),
(134,311,qs),
(135,305,l),
(137,294,l),
(138,288,ls),
(140,277,o),
(143,267,o),
(145,256,qs),
(146,243,o),
(150,234,q),
(150,233,o),
(150,231,qs),
(154,209,o),
(159,187,o),
(163,164,q),
(167,185,o),
(171,205,qs),
(179,251,o),
(197,339,o),
(201,359,qs),
(202,364,o),
(202,359,o),
(202,356,qs),
(202,355,o),
(202,354,o),
(202,356,qs),
(202,357,o),
(202,358,q),
(202,358,l),
(203,352,l),
(203,349,ls),
(203,346,o),
(201,343,o),
(201,343,o),
(201,344,qs),
(201,345,o),
(202,347,o),
(202,348,q),
(202,347,o),
(203,349,o),
(202,354,o),
(201,359,q),
(210,407,o),
(219,454,qs),
(221,463,ls),
(222,472,o),
(223,480,q),
(224,482,o),
(226,493,o),
(227,500,q)
);
}
);
width = 321;
},
{
layerId = "B3CF2B1D-9DC0-4956-9CAC-A50305770E90";
shapes = (
{
closed = 1;
nodes = (
(585,500,l),
(261,-200,l),
(165,-200,l),
(172,-186,o),
(204,-115,o),
(244,-25,o),
(261,14,qs),
(275,49,o),
(275,49,q),
(276,57,o),
(251,89,o),
(229,113,qs),
(201,145,o),
(199,150,qs),
(195,159,o),
(180,169,o),
(165,177,qs),
(143,188,o),
(137,195,q),
(128,199,o),
(115,211,o),
(108,219,qs),
(98,230,l),
(93,234,o),
(64,356,qs),
(20,528,l),
(38,528,l),
(40,514,o),
(54,495,o),
(68,482,qs),
(76,475,ls),
(79,473,o),
(96,450,qs),
(101,443,o),
(106,436,q),
(108,435,o),
(112,432,o),
(114,431,qs),
(118,429,l),
(122,424,o),
(133,420,q),
(141,419,ls),
(165,415,o),
(172,415,qs),
(175,415,o),
(192,396,qs),
(205,383,l),
(207,379,o),
(209,378,q),
(214,372,l),
(223,360,l),
(227,355,ls),
(232,348,o),
(244,329,o),
(247,320,qs),
(252,308,o),
(262,295,qs),
(268,289,o),
(275,292,q),
(279,295,o),
(293,313,o),
(294,323,qs),
(296,332,o),
(313,343,qs),
(318,346,o),
(327,353,o),
(330,358,qs),
(333,363,o),
(340,364,o),
(345,362,qs),
(349,361,o),
(357,362,o),
(361,365,qs),
(362,366,o),
(367,366,qs),
(369,366,l),
(373,359,l),
(379,350,ls),
(382,346,o),
(388,342,o),
(395,344,o),
(398,347,qs),
(399,348,o),
(402,350,o),
(403,349,q),
(406,348,o),
(412,350,o),
(417,355,o),
(419,359,q),
(460,420,o),
(473,443,qs),
(476,449,l),
(482,468,o),
(493,475,q),
(495,477,o),
(503,491,o),
(506,500,q)
);
}
);
width = 605;
}
);
note = Y;
unicode = (89,121);
},
{
glyphname = Z;
lastChange = "2025-10-03 14:59:39 +0000";
layers = (
{
layerId = m01;
shapes = (
{
closed = 1;
nodes = (
(371,100,l),
(365,100,ls),
(361,100,o),
(356,100,qs),
(346,100,o),
(335,100,qs),
(327,100,o),
(318,100,qs),
(242,100,o),
(166,100,qs),
(101,100,l),
(131,132,ls),
(134,136,o),
(137,139,qs),
(141,143,ls),
(151,154,o),
(160,164,qs),
(173,178,o),
(186,191,qs),
(196,201,o),
(205,211,qs),
(210,216,o),
(210,216,q),
(222,231,o),
(225,234,qs),
(239,248,ls),
(244,254,o),
(249,260,qs),
(262,273,l),
(276,289,l),
(286,300,l),
(294,309,l),
(334,352,ls),
(336,354,o),
(338,356,qs),
(340,358,o),
(341,360,q),
(342,360,l),
(345,364,ls),
(355,375,o),
(364,385,qs),
(371,392,o),
(377,399,q),
(377,443,o),
(377,486,qs),
(377,500,l),
(365,500,o),
(353,500,o),
(341,500,q),
(351,500,ls),
(323,500,o),
(294,500,qs),
(290,500,o),
(285,500,qs),
(275,500,o),
(264,500,qs),
(243,500,l),
(204,500,l),
(189,500,ls),
(178,500,o),
(166,500,qs),
(152,500,o),
(138,500,o),
(123,500,qs),
(116,500,o),
(108,500,qs),
(104,500,ls),
(100,500,o),
(96,500,o),
(92,500,qs),
(80,500,o),
(68,500,qs),
(57,500,o),
(46,500,qs),
(33,500,o),
(20,500,q),
(20,401,l),
(80,401,o),
(139,401,qs),
(194,401,l),
(196,401,ls),
(218,401,o),
(282,402,o),
(295,401,q),
(188,284,ls),
(17,100,o),
(21,100,q),
(21,51,o),
(21,1,q),
(85,1,l),
(132,1,l),
(72,1,l),
(47,1,l),
(72,1,l),
(96,1,l),
(119,1,ls),
(120,1,o),
(120,1,o),
(119,1,qs),
(102,1,o),
(85,1,q),
(86,1,o),
(88,1,o),
(89,1,qs),
(92,1,l),
(155,1,l),
(186,1,ls),
(194,1,o),
(202,1,qs),
(218,1,l),
(268,1,l),
(280,1,l),
(376,1,l),
(376,100,l)
);
}
);
width = 397;
},
{
layerId = "B3CF2B1D-9DC0-4956-9CAC-A50305770E90";
shapes = (
{
closed = 1;
nodes = (
(587,198,l),
(581,195,ls),
(575,193,o),
(572,190,qs),
(565,183,o),
(551,176,qs),
(542,172,o),
(534,165,qs),
(524,156,o),
(502,145,qs),
(485,135,l),
(479,131,l),
(473,137,o),
(474,146,qs),
(474,151,l),
(472,159,o),
(472,163,q),
(468,179,o),
(468,187,qs),
(467,200,o),
(454,215,qs),
(451,219,o),
(447,222,q),
(435,236,o),
(433,246,qs),
(428,266,l),
(424,276,o),
(423,281,qs),
(417,300,l),
(411,322,l),
(406,336,l),
(400,347,l),
(395,403,ls),
(395,408,o),
(394,409,qs),
(390,412,o),
(390,421,qs),
(390,423,l),
(389,428,l),
(386,434,o),
(384,448,qs),
(382,463,o),
(378,470,qs),
(375,476,o),
(375,487,qs),
(374,494,ls),
(373,498,o),
(369,500,o),
(366,498,q),
(361,497,ls),
(328,494,o),
(294,490,qs),
(291,490,o),
(285,488,qs),
(278,487,o),
(264,487,qs),
(243,485,l),
(204,480,l),
(189,478,l),
(177,478,o),
(166,475,qs),
(155,473,o),
(134,470,o),
(123,469,qs),
(113,469,o),
(108,468,qs),
(104,468,ls),
(101,468,o),
(95,468,o),
(92,467,qs),
(81,463,o),
(68,463,qs),
(57,463,o),
(46,460,qs),
(38,457,o),
(20,455,q),
(20,237,l),
(95,300,o),
(187,372,qs),
(294,459,l),
(294,458,ls),
(294,457,o),
(295,455,o),
(295,454,q),
(292,448,l),
(291,444,o),
(289,439,qs),
(285,425,o),
(282,418,qs),
(266,375,l),
(257,346,l),
(255,336,l),
(243,310,l),
(235,285,l),
(227,260,l),
(218,236,ls),
(217,234,o),
(217,232,o),
(216,230,qs),
(210,210,o),
(212,200,q),
(213,199,o),
(212,196,o),
(212,195,qs),
(212,192,l),
(211,128,l),
(212,96,ls),
(212,85,o),
(211,80,qs),
(210,63,l),
(210,12,l),
(210,0,l),
(592,0,l),
(592,201,l)
);
}
);
width = 612;
}
);
note = Z;
unicode = (90,122);
},
{
glyphname = zero;
layers = (
{
layerId = m01;
shapes = (
{
closed = 1;
nodes = (
(319,0,o),
(414,53,o),
(475,172,o),
(477,265,qs),
(477,321,o),
(477,377,o),
(477,435,qs),
(479,470,o),
(471,511,qs),
(462,561,o),
(415,646,o),
(328,700,o),
(263,700,qs),
(209,700,o),
(104,655,o),
(30,536,o),
(30,435,qs),
(30,398,o),
(30,343,o),
(31,265,qs),
(31,177,o),
(86,56,o),
(191,-3,o),
(263,0,qs)
);
},
{
closed = 1;
nodes = (
(192,90,o),
(132,158,o),
(122,208,qs),
(117,232,o),
(117,261,qs),
(117,434,l),
(115,473,o),
(138,553,o),
(201,610,o),
(257,610,qs),
(302,610,o),
(362,573,o),
(391,493,o),
(390,428,qs),
(390,374,o),
(390,320,o),
(390,265,qs),
(390,261,ls),
(389,162,o),
(307,90,o),
(251,90,qs)
);
}
);
width = 507;
},
{
layerId = "B3CF2B1D-9DC0-4956-9CAC-A50305770E90";
shapes = (
{
closed = 1;
nodes = (
(304,-2,o),
(373,29,o),
(427,84,o),
(450,120,qs),
(496,189,o),
(522,338,o),
(505,385,qs),
(499,400,o),
(493,439,qs),
(482,500,o),
(457,591,o),
(406,674,o),
(365,690,qs),
(345,698,o),
(304,701,o),
(272,698,o),
(263,696,q),
(156,642,o),
(29,451,o),
(30,343,qs),
(30,261,o),
(105,107,o),
(215,7,o),
(263,1,qs)
);
},
{
closed = 1;
nodes = (
(253,182,o),
(225,228,o),
(210,255,qs),
(197,278,o),
(183,301,q),
(192,532,l),
(220,580,o),
(256,632,o),
(287,654,o),
(301,648,qs),
(347,627,o),
(382,579,o),
(386,463,o),
(375,326,q),
(371,297,o),
(354,237,o),
(333,171,qs),
(332,167,l),
(324,164,o),
(284,158,o),
(272,157,q)
);
}
);
width = 544;
}
);
note = zero;
unicode = 48;
},
{
glyphname = one;
layers = (
{
layerId = m01;
shapes = (
{
closed = 1;
nodes = (
(30,141,l),
(30,0,l),
(97,1,l),
(98,0,l),
(97,700,l),
(30,700,l),
(30,617,l),
(30,610,l),
(30,607,ls),
(30,594,o),
(30,582,o),
(30,569,q),
(30,569,o),
(30,568,o),
(30,568,q),
(30,570,l),
(30,566,ls),
(30,553,o),
(30,540,qs),
(30,537,o),
(30,533,qs),
(30,526,o),
(30,518,qs),
(30,517,l),
(30,465,ls),
(30,441,o),
(30,417,qs),
(30,403,o),
(30,388,qs),
(30,371,ls),
(30,364,o),
(30,357,qs),
(30,353,ls),
(30,338,o),
(30,323,qs),
(30,314,ls),
(30,308,o),
(30,301,qs),
(30,296,o),
(30,291,qs),
(30,268,o),
(30,245,qs),
(30,242,o),
(30,239,qs),
(30,237,o),
(30,235,o),
(30,233,qs),
(30,223,o),
(30,213,qs),
(30,202,o),
(30,190,qs),
(30,179,l)
);
}
);
width = 128;
},
{
layerId = "B3CF2B1D-9DC0-4956-9CAC-A50305770E90";
shapes = (
{
closed = 1;
nodes = (
(53,141,l),
(53,0,l),
(145,1,l),
(146,0,l),
(145,700,l),
(118,700,l),
(94,617,l),
(91,610,l),
(90,607,l),
(90,596,o),
(87,579,o),
(84,569,qs),
(83,566,o),
(77,566,o),
(75,568,q),
(68,570,l),
(68,566,ls),
(68,551,o),
(60,540,q),
(54,534,o),
(51,533,qs),
(43,531,o),
(40,518,qs),
(40,517,l),
(38,465,ls),
(38,434,o),
(37,417,qs),
(35,399,o),
(33,388,qs),
(31,371,l),
(27,362,o),
(35,357,q),
(38,353,l),
(38,345,o),
(44,323,qs),
(47,314,ls),
(48,310,o),
(48,301,q),
(49,298,o),
(49,291,qs),
(49,261,o),
(50,245,qs),
(50,241,o),
(51,239,q),
(51,237,o),
(52,234,o),
(51,233,q),
(51,223,o),
(50,213,qs),
(49,206,o),
(51,190,qs),
(52,179,l)
);
}
);
width = 176;
}
);
note = one;
unicode = 49;
},
{
glyphname = two;
layers = (
{
layerId = m01;
shapes = (
{
closed = 1;
nodes = (
(344,700,l),
(31,700,l),
(31,586,l),
(311,586,l),
(311,586,l),
(311,586,l),
(311,586,l),
(311,573,o),
(311,561,o),
(311,548,qs),
(311,540,ls),
(311,536,o),
(311,532,qs),
(311,530,o),
(311,528,qs),
(311,526,o),
(311,523,o),
(311,521,qs),
(311,508,o),
(311,495,qs),
(311,489,ls),
(311,476,o),
(311,464,o),
(311,451,qs),
(311,442,o),
(311,433,o),
(311,423,qs),
(311,406,l),
(30,406,l),
(30,0,l),
(345,0,l),
(345,112,l),
(64,112,l),
(64,122,o),
(64,131,qs),
(64,144,o),
(64,156,qs),
(64,164,o),
(64,171,qs),
(64,174,o),
(64,176,qs),
(64,183,o),
(64,190,qs),
(64,202,o),
(64,213,qs),
(64,219,o),
(64,225,qs),
(64,233,o),
(64,240,qs),
(64,210,o),
(64,180,qs),
(64,178,l),
(64,180,o),
(64,181,o),
(64,183,q),
(64,183,l),
(64,190,o),
(64,198,o),
(64,205,qs),
(64,216,o),
(64,227,qs),
(64,237,o),
(64,246,o),
(64,256,qs),
(64,259,ls),
(64,268,o),
(64,276,qs),
(64,285,o),
(64,294,q),
(344,294,l),
(344,441,l)
);
}
);
width = 375;
},
{
layerId = "B3CF2B1D-9DC0-4956-9CAC-A50305770E90";
shapes = (
{
closed = 1;
nodes = (
(344,700,l),
(30,700,l),
(30,586,l),
(152,586,l),
(178,586,l),
(214,586,l),
(257,586,ls),
(259,586,o),
(258,549,o),
(256,548,q),
(258,540,l),
(258,536,o),
(261,532,q),
(262,532,o),
(262,528,qs),
(262,526,o),
(262,522,o),
(263,521,q),
(259,520,o),
(252,495,qs),
(250,489,l),
(229,484,o),
(208,465,o),
(201,451,qs),
(191,435,o),
(184,428,o),
(175,423,qs),
(147,406,l),
(30,396,l),
(30,0,l),
(370,0,l),
(370,112,l),
(161,112,ls),
(160,112,o),
(152,131,qs),
(142,155,o),
(139,156,qs),
(134,158,o),
(127,171,q),
(127,174,o),
(125,176,q),
(122,187,o),
(119,190,q),
(115,197,o),
(111,213,qs),
(110,217,o),
(112,225,qs),
(114,236,o),
(112,240,q),
(120,247,o),
(127,247,qs),
(133,248,l),
(138,252,o),
(153,253,o),
(161,253,qs),
(175,253,ls),
(185,254,o),
(195,264,o),
(200,275,qs),
(208,289,o),
(214,297,qs),
(221,305,o),
(219,319,o),
(215,326,q),
(214,329,l),
(213,338,o),
(214,346,qs),
(216,358,o),
(214,364,q),
(344,364,l),
(344,441,l)
);
}
);
width = 400;
}
);
note = two;
unicode = 50;
},
{
glyphname = three;
layers = (
{
layerId = m01;
shapes = (
{
closed = 1;
nodes = (
(30,700,l),
(31,588,l),
(84,588,l),
(88,588,ls),
(91,588,o),
(94,588,o),
(97,588,qs),
(147,588,ls),
(177,588,o),
(207,588,qs),
(214,588,o),
(221,588,qs),
(224,588,o),
(227,588,o),
(230,588,qs),
(300,588,l),
(300,588,o),
(300,588,o),
(300,588,q),
(300,588,o),
(300,588,o),
(300,588,q),
(300,588,o),
(300,588,o),
(300,588,q),
(300,588,o),
(300,588,o),
(300,588,q),
(300,573,o),
(300,558,o),
(300,543,qs),
(300,405,l),
(300,405,o),
(300,405,o),
(300,405,q),
(300,405,o),
(300,405,o),
(300,405,q),
(300,405,l),
(300,405,o),
(300,405,o),
(300,405,q),
(274,405,o),
(248,405,o),
(221,405,qs),
(220,405,ls),
(218,405,o),
(216,405,qs),
(214,405,o),
(211,405,o),
(209,405,qs),
(203,405,o),
(196,405,qs),
(184,405,o),
(172,405,qs),
(171,405,o),
(169,405,qs),
(164,405,o),
(160,405,o),
(155,405,qs),
(154,405,o),
(152,405,qs),
(147,405,o),
(142,405,qs),
(140,405,o),
(139,405,o),
(137,405,qs),
(136,405,o),
(136,405,o),
(135,405,qs),
(134,405,ls),
(128,405,o),
(121,405,qs),
(117,405,o),
(113,405,qs),
(109,405,o),
(104,405,qs),
(103,405,o),
(103,405,o),
(102,405,qs),
(30,405,l),
(30,294,l),
(43,294,ls),
(50,294,o),
(57,294,o),
(64,294,qs),
(66,294,ls),
(70,294,o),
(74,294,o),
(78,294,qs),
(83,294,o),
(87,294,qs),
(91,294,o),
(94,294,o),
(98,294,qs),
(112,294,ls),
(120,294,o),
(128,294,qs),
(129,294,o),
(130,294,o),
(131,294,qs),
(135,294,o),
(138,294,o),
(142,294,qs),
(144,294,o),
(146,294,o),
(148,294,qs),
(149,294,o),
(151,294,o),
(152,294,qs),
(153,294,ls),
(154,294,o),
(154,294,o),
(155,294,qs),
(163,294,o),
(170,294,o),
(178,294,qs),
(181,294,o),
(184,294,qs),
(186,294,o),
(188,294,qs),
(197,294,o),
(205,294,qs),
(213,294,o),
(220,294,qs),
(222,294,o),
(223,294,qs),
(252,294,o),
(280,294,qs),
(290,294,o),
(300,294,q),
(300,294,l),
(300,294,o),
(300,294,o),
(300,294,q),
(300,294,l),
(300,294,l),
(300,294,o),
(300,294,o),
(300,294,q),
(300,233,o),
(300,172,o),
(300,109,q),
(300,113,l),
(300,113,l),
(300,113,l),
(300,113,o),
(300,113,o),
(300,113,q),
(300,113,l),
(300,113,o),
(300,113,o),
(300,113,q),
(300,113,o),
(300,113,o),
(300,113,q),
(300,113,o),
(300,113,o),
(300,113,q),
(300,113,l),
(300,113,o),
(300,113,o),
(300,113,q),
(300,113,o),
(300,113,o),
(300,113,q),
(300,113,o),
(300,113,o),
(300,113,q),
(300,113,o),
(300,113,o),
(300,113,q),
(300,113,o),
(300,113,o),
(300,113,q),
(300,113,l),
(252,113,o),
(203,113,qs),
(197,113,o),
(190,113,qs),
(181,113,o),
(172,113,o),
(163,113,qs),
(153,113,ls),
(145,113,o),
(137,113,qs),
(129,113,o),
(121,113,qs),
(110,113,ls),
(99,113,o),
(89,113,o),
(78,113,o),
(67,113,qs),
(49,113,o),
(30,113,q),
(30,0,l),
(348,0,l),
(348,700,l)
);
}
);
width = 378;
},
{
layerId = "B3CF2B1D-9DC0-4956-9CAC-A50305770E90";
shapes = (
{
closed = 1;
nodes = (
(30,700,l),
(31,598,l),
(84,595,l),
(88,601,ls),
(90,604,o),
(93,607,o),
(97,607,q),
(147,597,l),
(196,616,o),
(207,612,q),
(216,607,o),
(221,612,q),
(223,613,o),
(229,618,o),
(230,617,qs),
(244,607,ls),
(246,606,o),
(251,606,o),
(255,607,q),
(258,597,o),
(259,589,o),
(257,589,qs),
(253,590,o),
(243,586,o),
(239,584,qs),
(237,583,o),
(234,566,o),
(235,563,qs),
(240,551,o),
(244,540,o),
(244,534,qs),
(245,510,ls),
(245,502,o),
(248,492,o),
(250,490,qs),
(253,486,o),
(253,479,o),
(249,470,q),
(244,448,l),
(243,447,o),
(241,445,o),
(240,446,qs),
(235,452,o),
(227,449,o),
(221,443,qs),
(220,442,ls),
(218,440,o),
(216,443,q),
(215,446,o),
(211,440,o),
(209,434,qs),
(202,415,o),
(196,416,qs),
(183,418,o),
(172,405,qs),
(171,404,o),
(169,405,qs),
(163,409,o),
(159,410,o),
(155,406,qs),
(154,405,o),
(152,406,q),
(147,412,o),
(142,413,q),
(138,415,o),
(136,420,o),
(137,428,qs),
(137,430,o),
(136,432,o),
(135,432,qs),
(134,432,l),
(126,436,o),
(121,431,qs),
(119,428,o),
(113,430,q),
(109,430,o),
(104,433,q),
(103,433,o),
(101,436,o),
(102,437,q),
(30,436,l),
(30,327,l),
(43,322,ls),
(50,320,o),
(61,315,o),
(64,315,qs),
(66,315,ls),
(69,315,o),
(76,316,o),
(78,315,qs),
(84,312,o),
(87,305,qs),
(88,302,o),
(94,302,o),
(98,303,q),
(112,304,l),
(119,317,o),
(128,314,q),
(129,313,o),
(131,314,o),
(131,315,q),
(133,320,o),
(137,323,o),
(142,322,qs),
(143,322,o),
(147,331,o),
(148,333,qs),
(149,335,o),
(152,333,o),
(152,331,qs),
(153,327,ls),
(153,325,o),
(154,321,o),
(155,321,qs),
(163,320,o),
(172,329,o),
(178,341,q),
(180,343,o),
(184,341,q),
(187,338,o),
(188,341,qs),
(192,352,o),
(205,352,qs),
(210,352,o),
(220,360,q),
(222,360,o),
(223,359,q),
(227,352,o),
(239,350,qs),
(243,350,o),
(249,348,q),
(251,346,l),
(252,341,o),
(256,331,o),
(259,329,qs),
(262,327,l),
(267,326,ls),
(269,326,o),
(282,303,o),
(282,293,qs),
(282,269,o),
(286,249,o),
(293,231,qs),
(299,216,l),
(300,212,l),
(299,208,l),
(298,207,o),
(297,205,o),
(297,204,q),
(298,202,l),
(299,202,o),
(299,201,o),
(299,200,qs),
(299,198,o),
(294,191,o),
(292,188,qs),
(291,187,o),
(289,185,o),
(289,184,q),
(288,182,l),
(286,180,o),
(282,175,o),
(280,174,qs),
(276,172,o),
(263,169,o),
(259,170,qs),
(258,170,o),
(257,167,o),
(256,165,qs),
(255,164,o),
(253,164,o),
(252,165,qs),
(250,167,o),
(243,173,o),
(240,176,qs),
(238,178,l),
(230,183,o),
(203,162,qs),
(202,161,o),
(190,167,q),
(188,169,o),
(173,165,o),
(163,154,qs),
(153,144,l),
(150,142,o),
(137,138,qs),
(134,137,o),
(121,140,qs),
(110,141,ls),
(101,143,o),
(80,139,o),
(66,131,o),
(67,128,q),
(67,115,o),
(30,115,q),
(30,0,l),
(348,0,l),
(348,700,l)
);
}
);
width = 378;
}
);
note = three;
unicode = 51;
},
{
glyphname = four;
layers = (
{
layerId = m01;
shapes = (
{
closed = 1;
nodes = (
(268,311,l),
(236,311,ls),
(232,311,o),
(227,311,qs),
(226,311,o),
(226,311,o),
(225,311,qs),
(223,311,o),
(221,311,qs),
(226,311,l),
(225,311,ls),
(224,311,o),
(224,311,o),
(223,311,qs),
(220,311,o),
(217,311,q),
(217,311,l),
(214,311,o),
(211,311,qs),
(207,311,o),
(202,311,qs),
(198,311,ls),
(194,311,o),
(190,311,qs),
(187,311,o),
(184,311,qs),
(147,311,o),
(110,311,q),
(120,333,o),
(129,355,qs),
(139,378,o),
(148,400,qs),
(150,405,o),
(152,409,qs),
(154,415,o),
(156,420,qs),
(162,433,l),
(164,438,l),
(166,442,ls),
(168,446,o),
(169,450,o),
(171,454,qs),
(173,460,o),
(173,460,q),
(175,465,l),
(176,466,l),
(178,471,l),
(180,475,ls),
(181,477,o),
(181,478,q),
(181,478,l),
(182,479,o),
(182,480,q),
(185,486,o),
(187,491,qs),
(190,498,o),
(192,504,qs),
(201,523,o),
(244,614,o),
(260,649,q),
(268,649,l)
);
},
{
closed = 1;
nodes = (
(322,311,l),
(322,700,l),
(215,700,l),
(30,305,l),
(30,167,l),
(268,167,l),
(268,0,l),
(322,0,l),
(322,167,l),
(402,167,l),
(402,311,l)
);
}
);
width = 432;
},
{
layerId = "B3CF2B1D-9DC0-4956-9CAC-A50305770E90";
shapes = (
{
closed = 1;
nodes = (
(268,311,l),
(236,311,ls),
(230,311,o),
(227,320,q),
(227,321,o),
(226,322,o),
(225,322,q),
(218,327,o),
(221,333,qs),
(226,343,l),
(225,344,l),
(225,345,o),
(224,346,o),
(223,346,q),
(219,348,o),
(217,354,q),
(217,356,l),
(215,360,o),
(211,360,qs),
(205,360,o),
(202,363,q),
(198,365,l),
(196,367,o),
(190,369,q),
(186,369,o),
(184,368,q),
(180,368,o),
(175,367,q),
(167,367,o),
(163,369,qs),
(159,372,o),
(161,377,qs),
(163,386,o),
(169,392,qs),
(177,402,o),
(177,406,q),
(187,427,l),
(189,434,l),
(191,439,ls),
(192,442,o),
(197,455,o),
(196,456,qs),
(193,461,o),
(191,467,qs),
(189,473,l),
(188,475,l),
(186,482,l),
(187,487,ls),
(188,490,o),
(188,492,qs),
(188,493,ls),
(188,495,o),
(188,495,q),
(191,503,o),
(196,512,q),
(199,522,o),
(202,531,q),
(202,533,o),
(245,611,o),
(266,647,q),
(268,647,l)
);
},
{
closed = 1;
nodes = (
(322,311,l),
(322,700,l),
(215,700,l),
(30,305,l),
(30,167,l),
(268,167,l),
(268,0,l),
(322,0,l),
(322,167,l),
(402,167,l),
(402,311,l)
);
}
);
width = 432;
}
);
note = four;
unicode = 52;
},
{
glyphname = five;
layers = (
{
layerId = m01;
shapes = (
{
closed = 1;
nodes = (
(344,416,l),
(214,416,l),
(219,416,o),
(224,416,q),
(219,416,o),
(213,416,o),
(208,416,qs),
(200,416,o),
(192,416,qs),
(184,416,o),
(175,416,qs),
(151,416,ls),
(132,416,o),
(112,416,o),
(92,416,q),
(92,416,o),
(92,416,o),
(92,416,q),
(92,452,o),
(92,487,qs),
(92,536,o),
(92,584,q),
(92,584,o),
(92,584,o),
(92,584,q),
(127,584,o),
(161,584,qs),
(187,584,o),
(212,584,o),
(239,584,qs),
(260,584,l),
(281,584,l),
(289,584,ls),
(296,584,o),
(303,584,qs),
(340,584,l),
(340,700,l),
(50,700,l),
(50,304,l),
(147,304,l),
(175,304,ls),
(184,304,o),
(192,304,o),
(201,304,qs),
(226,304,o),
(251,304,o),
(276,304,q),
(276,304,o),
(276,304,o),
(276,304,q),
(276,304,l),
(276,268,o),
(276,232,o),
(276,195,qs),
(276,114,l),
(276,114,o),
(276,114,o),
(276,114,q),
(276,114,o),
(276,114,o),
(276,114,q),
(276,114,l),
(276,114,o),
(276,114,o),
(276,114,q),
(276,114,l),
(249,114,o),
(222,114,qs),
(215,114,o),
(208,114,qs),
(197,114,o),
(186,114,o),
(175,114,qs),
(164,114,o),
(152,114,qs),
(30,114,l),
(30,0,l),
(344,0,l),
(344,319,l)
);
}
);
width = 374;
},
{
layerId = "B3CF2B1D-9DC0-4956-9CAC-A50305770E90";
shapes = (
{
closed = 1;
nodes = (
(344,386,l),
(214,386,l),
(219,404,o),
(224,421,qs),
(226,427,o),
(219,436,o),
(208,437,qs),
(196,438,o),
(192,442,q),
(186,446,o),
(175,447,qs),
(161,447,ls),
(153,447,o),
(138,448,o),
(133,452,qs),
(127,457,o),
(107,460,o),
(92,460,q),
(97,472,o),
(101,487,qs),
(122,583,o),
(125,594,q),
(127,598,o),
(136,603,o),
(142,604,q),
(147,608,o),
(161,608,q),
(171,611,o),
(209,606,o),
(239,600,qs),
(260,596,l),
(281,599,l),
(289,600,ls),
(297,600,o),
(303,602,qs),
(340,613,l),
(340,700,l),
(50,700,l),
(50,304,l),
(147,294,l),
(175,277,ls),
(184,272,o),
(191,265,o),
(201,249,qs),
(208,235,o),
(229,216,o),
(250,211,q),
(253,211,o),
(257,210,o),
(260,209,q),
(254,205,l),
(259,199,o),
(260,191,o),
(257,185,qs),
(256,182,l),
(258,181,o),
(259,175,o),
(257,173,q),
(261,168,o),
(267,158,o),
(268,153,q),
(275,141,l),
(276,138,o),
(275,134,o),
(275,132,qs),
(275,127,ls),
(276,118,o),
(222,106,q),
(220,105,o),
(208,107,qs),
(201,108,o),
(182,111,o),
(175,110,qs),
(158,108,o),
(152,106,q),
(30,84,l),
(30,0,l),
(344,0,l),
(344,319,l)
);
}
);
width = 374;
}
);
note = five;
unicode = 53;
},
{
glyphname = six;
layers = (
{
layerId = m01;
shapes = (
{
closed = 1;
nodes = (
(275,198,o),
(275,158,o),
(275,116,q),
(215,116,o),
(155,116,o),
(93,116,q),
(93,226,o),
(93,335,q),
(153,335,o),
(213,335,o),
(275,335,q),
(275,303,o),
(275,272,o),
(275,239,qs)
);
},
{
closed = 1;
nodes = (
(343,411,o),
(343,456,q),
(294,456,o),
(244,456,o),
(193,456,qs),
(149,456,o),
(105,456,qs),
(97,456,l),
(98,573,l),
(169,620,l),
(334,620,l),
(334,700,l),
(130,700,l),
(30,618,l),
(30,199,l),
(30,178,ls),
(30,158,o),
(30,138,qs),
(30,114,ls),
(30,87,o),
(30,60,o),
(30,32,qs),
(30,0,l),
(30,0,l),
(30,0,o),
(30,0,o),
(30,0,q),
(68,0,o),
(105,0,qs),
(110,0,o),
(115,0,qs),
(123,0,o),
(131,0,qs),
(134,0,l),
(136,0,ls),
(142,0,o),
(147,0,qs),
(151,0,o),
(155,0,qs),
(161,0,l),
(176,0,ls),
(184,0,o),
(191,0,o),
(199,0,qs),
(215,0,o),
(230,0,qs),
(267,0,o),
(305,0,o),
(343,0,q),
(343,26,o),
(343,51,o),
(343,78,qs),
(343,93,o),
(343,107,qs),
(343,128,l),
(343,136,l),
(343,148,l),
(343,170,l),
(343,186,ls),
(343,197,o),
(343,207,qs),
(343,209,ls),
(343,213,o),
(343,217,qs),
(343,225,o),
(343,232,qs),
(343,242,o),
(343,252,qs),
(343,309,o),
(343,366,qs)
);
}
);
width = 373;
},
{
layerId = "B3CF2B1D-9DC0-4956-9CAC-A50305770E90";
shapes = (
{
closed = 1;
nodes = (
(226,275,o),
(204,239,o),
(183,239,qs),
(162,239,o),
(140,274,o),
(140,299,qs),
(140,340,o),
(160,356,qs),
(171,364,o),
(195,364,o),
(205,356,qs),
(216,348,o),
(226,318,o),
(226,302,qs)
);
},
{
closed = 1;
nodes = (
(329,400,o),
(317,425,qs),
(303,459,o),
(230,506,o),
(193,506,qs),
(132,506,o),
(105,454,q),
(97,454,l),
(98,573,l),
(119,620,l),
(274,620,l),
(274,700,l),
(80,700,l),
(31,618,l),
(30,199,l),
(43,178,ls),
(65,143,o),
(65,138,q),
(77,114,ls),
(81,106,o),
(83,94,o),
(83,87,qs),
(83,82,l),
(88,53,ls),
(89,49,o),
(91,41,o),
(93,37,q),
(104,36,o),
(105,34,qs),
(109,28,o),
(115,28,qs),
(128,28,o),
(131,17,qs),
(134,10,l),
(136,8,ls),
(141,4,o),
(147,3,q),
(152,-1,o),
(155,5,q),
(161,9,l),
(176,16,ls),
(181,18,o),
(193,13,o),
(199,10,qs),
(217,-2,o),
(230,0,qs),
(241,1,o),
(267,14,o),
(270,25,q),
(278,35,o),
(281,64,o),
(281,87,q),
(279,101,o),
(281,107,qs),
(287,128,l),
(288,136,l),
(294,148,l),
(297,170,l),
(298,186,ls),
(299,193,o),
(307,207,q),
(314,209,ls),
(327,213,o),
(328,217,qs),
(331,225,o),
(334,232,qs),
(340,246,o),
(340,252,qs),
(344,308,o),
(332,366,q)
);
}
);
width = 371;
}
);
note = six;
unicode = 54;
},
{
glyphname = seven;
layers = (
{
layerId = m01;
shapes = (
{
closed = 1;
nodes = (
(322,277,o),
(328,290,qs),
(333,300,o),
(338,310,qs),
(342,318,o),
(345,325,qs),
(347,328,o),
(348,331,qs),
(349,333,ls),
(351,336,o),
(354,344,o),
(356,348,qs),
(370,378,l),
(377,387,o),
(380,399,q),
(381,400,l),
(384,405,ls),
(388,414,o),
(392,423,qs),
(399,436,o),
(405,449,qs),
(409,456,o),
(412,463,qs),
(420,479,ls),
(434,507,o),
(448,535,qs),
(458,554,o),
(467,572,q),
(467,689,l),
(291,689,l),
(257,689,l),
(227,689,l),
(220,689,ls),
(209,689,o),
(197,689,qs),
(179,689,o),
(161,689,qs),
(139,689,ls),
(129,689,o),
(119,689,qs),
(111,689,o),
(102,689,qs),
(84,689,o),
(66,689,qs),
(48,689,ls),
(39,689,o),
(30,689,q),
(30,602,l),
(372,602,l),
(87,0,l),
(120,0,l),
(149,0,ls),
(153,0,o),
(156,0,o),
(160,0,qs),
(170,0,l),
(189,0,l),
(315,263,ls)
);
}
);
width = 497;
},
{
layerId = "B3CF2B1D-9DC0-4956-9CAC-A50305770E90";
shapes = (
{
closed = 1;
nodes = (
(391,282,o),
(395,302,qs),
(397,316,o),
(392,324,qs),
(388,330,o),
(390,340,qs),
(390,342,o),
(388,346,q),
(386,348,ls),
(381,354,o),
(378,361,o),
(381,366,q),
(382,399,l),
(384,408,o),
(377,421,qs),
(376,423,l),
(372,429,ls),
(365,443,o),
(365,449,qs),
(365,458,o),
(363,478,qs),
(362,483,o),
(362,493,qs),
(360,512,ls),
(360,516,o),
(357,519,q),
(355,523,o),
(355,524,qs),
(358,671,l),
(291,676,l),
(257,678,l),
(227,681,l),
(220,682,ls),
(205,684,o),
(197,683,qs),
(187,683,o),
(161,687,qs),
(139,689,l),
(133,688,o),
(119,690,qs),
(114,691,o),
(102,691,qs),
(90,690,o),
(66,693,qs),
(48,696,l),
(42,698,o),
(30,698,q),
(30,509,l),
(301,509,l),
(265,6,l),
(290,2,l),
(319,5,ls),
(327,6,o),
(353,4,o),
(368,3,qs),
(399,2,l),
(426,0,l),
(390,271,l)
);
}
);
width = 456;
}
);
note = seven;
unicode = 55;
},
{
glyphname = eight;
layers = (
{
layerId = m01;
shapes = (
{
closed = 1;
nodes = (
(361,390,o),
(484,446,o),
(487,506,qs),
(487,531,o),
(487,556,o),
(487,582,q),
(489,598,o),
(481,616,qs),
(467,652,o),
(367,700,o),
(273,700,qs),
(184,700,o),
(40,647,o),
(40,582,qs),
(40,566,o),
(40,541,o),
(41,506,qs),
(41,467,o),
(96,414,o),
(200,388,o),
(273,390,qs)
);
},
{
closed = 1;
nodes = (
(179,453,o),
(161,492,qs),
(156,501,o),
(156,512,qs),
(156,574,l),
(154,597,o),
(203,636,o),
(266,636,qs),
(302,636,o),
(348,623,o),
(371,595,o),
(371,572,qs),
(371,554,o),
(371,536,o),
(371,517,qs),
(371,512,ls),
(370,468,o),
(306,457,qs),
(286,453,o),
(261,453,qs)
);
},
{
closed = 1;
nodes = (
(201,422,o),
(90,386,o),
(31,314,o),
(31,262,qs),
(30,215,o),
(30,181,o),
(30,158,qs),
(30,71,o),
(184,0,o),
(278,0,qs),
(377,0,o),
(484,65,o),
(500,112,qs),
(507,137,o),
(506,158,qs),
(506,192,o),
(506,227,o),
(506,262,qs),
(503,344,o),
(372,420,o),
(278,420,qs)
);
},
{
closed = 1;
nodes = (
(308,352,o),
(339,343,qs),
(402,323,o),
(403,260,qs),
(403,247,ls),
(403,220,o),
(403,194,o),
(403,166,qs),
(404,130,o),
(375,86,o),
(317,66,o),
(272,66,qs),
(192,66,o),
(131,127,o),
(134,163,q),
(134,260,ls),
(134,280,o),
(143,298,qs),
(171,352,o),
(266,352,qs)
);
}
);
width = 536;
},
{
layerId = "B3CF2B1D-9DC0-4956-9CAC-A50305770E90";
shapes = (
{
closed = 1;
nodes = (
(327,393,o),
(418,422,o),
(455,446,qs),
(501,477,o),
(527,542,o),
(510,563,qs),
(504,571,o),
(498,587,qs),
(480,628,o),
(427,686,o),
(370,696,qs),
(341,700,o),
(289,700,o),
(268,698,q),
(160,675,o),
(34,592,o),
(35,544,qs),
(35,508,o),
(110,441,o),
(220,398,o),
(268,396,qs)
);
},
{
closed = 1;
nodes = (
(249,480,o),
(217,504,qs),
(203,515,o),
(188,526,q),
(197,627,l),
(239,658,o),
(286,681,o),
(306,677,qs),
(353,668,o),
(387,647,o),
(391,597,o),
(380,537,q),
(375,525,o),
(360,501,o),
(342,475,qs),
(337,468,l),
(315,466,o),
(293,464,qs),
(285,464,o),
(277,463,q)
);
},
{
closed = 1;
nodes = (
(219,429,o),
(107,368,o),
(30,272,o),
(30,222,qs),
(29,154,o),
(158,36,o),
(268,2,q),
(292,0,o),
(343,0,o),
(372,6,qs),
(431,20,o),
(485,102,o),
(502,160,qs),
(510,187,o),
(515,195,qs),
(532,224,o),
(506,317,o),
(458,360,qs),
(422,394,o),
(328,435,o),
(268,432,qs)
);
},
{
closed = 1;
nodes = (
(289,351,o),
(300,349,q),
(327,347,o),
(338,344,q),
(346,328,ls),
(363,294,o),
(377,263,o),
(382,247,q),
(393,161,o),
(389,90,o),
(354,61,o),
(306,48,qs),
(286,42,o),
(238,75,o),
(195,118,q),
(186,263,l),
(203,281,o),
(220,298,qs),
(249,328,o),
(277,352,q)
);
}
);
width = 554;
}
);
note = eight;
unicode = 56;
},
{
glyphname = nine;
layers = (
{
layerId = m01;
shapes = (
{
closed = 1;
nodes = (
(30,445,o),
(30,432,o),
(30,418,qs),
(30,403,o),
(30,388,qs),
(30,353,o),
(30,317,qs),
(30,303,o),
(30,289,o),
(30,274,q),
(83,274,o),
(137,274,o),
(192,274,qs),
(304,274,l),
(303,95,l),
(48,95,l),
(48,0,l),
(374,0,l),
(374,466,ls),
(374,543,o),
(374,620,o),
(374,700,q),
(360,700,ls),
(353,700,o),
(345,700,qs),
(340,700,o),
(335,700,o),
(330,700,qs),
(325,700,ls),
(322,700,o),
(318,700,qs),
(311,700,o),
(304,700,qs),
(298,700,o),
(292,700,qs),
(286,700,o),
(279,700,o),
(273,700,qs),
(269,700,l),
(267,700,ls),
(261,700,o),
(254,700,qs),
(249,700,o),
(244,700,qs),
(241,700,o),
(237,700,qs),
(219,700,ls),
(206,700,o),
(192,700,qs),
(173,700,o),
(154,700,qs),
(138,700,o),
(123,700,o),
(107,700,qs),
(94,700,o),
(81,700,qs),
(79,700,o),
(77,700,o),
(75,700,q),
(75,700,l),
(75,700,l),
(75,700,l),
(75,700,l),
(75,700,o),
(75,700,o),
(75,700,q),
(69,687,o),
(62,673,qs),
(46,639,o),
(30,604,q),
(30,561,l),
(30,459,ls)
);
},
{
closed = 1;
nodes = (
(275,361,l),
(124,361,l),
(124,415,o),
(124,469,o),
(124,524,qs),
(124,563,o),
(124,601,q),
(200,601,o),
(275,601,q),
(275,495,l)
);
}
);
width = 404;
},
{
layerId = "B3CF2B1D-9DC0-4956-9CAC-A50305770E90";
shapes = (
{
closed = 1;
nodes = (
(30,389,o),
(37,368,o),
(41,358,qs),
(50,338,o),
(50,328,q),
(74,303,o),
(97,273,qs),
(106,262,o),
(123,243,o),
(135,236,q),
(182,236,o),
(303,272,o),
(314,294,q),
(324,294,l),
(323,95,l),
(188,95,l),
(188,0,l),
(403,0,l),
(403,466,l),
(397,472,o),
(384,588,o),
(384,605,q),
(370,621,ls),
(367,624,o),
(355,630,qs),
(350,632,o),
(340,638,o),
(340,643,q),
(335,663,l),
(331,667,o),
(328,673,q),
(315,674,o),
(314,675,qs),
(310,679,o),
(302,679,qs),
(294,679,o),
(286,682,o),
(283,687,q),
(279,691,l),
(277,692,l),
(273,696,o),
(264,696,q),
(258,698,o),
(254,695,qs),
(251,692,o),
(247,692,q),
(229,687,l),
(218,686,o),
(202,692,qs),
(177,699,o),
(164,698,qs),
(151,697,o),
(121,688,o),
(117,681,q),
(113,678,o),
(88,663,qs),
(78,658,o),
(62,647,o),
(61,644,q),
(53,630,l),
(52,625,l),
(45,617,l),
(43,615,l),
(42,616,o),
(42,613,o),
(41,610,q),
(41,606,o),
(37,588,qs),
(30,560,o),
(30,544,qs),
(30,501,l),
(30,399,ls)
);
},
{
closed = 1;
nodes = (
(277,396,l),
(152,396,l),
(152,421,o),
(164,454,o),
(175,474,qs),
(188,496,o),
(188,509,q),
(256,546,o),
(277,546,q),
(277,480,l)
);
}
);
width = 433;
}
);
note = nine;
unicode = 57;
},
